<svg width="212" height="40" viewBox="0 0 212 40" fill="none" xmlns="http://www.w3.org/2000/svg">
<path d="M77.52 19H73.98V22.5H71.84V19H68.3V17H71.84V13.5H73.98V17H77.52V19ZM85.2463 16.78C86.5396 16.94 87.5263 17.38 88.2063 18.1C88.8863 18.82 89.2263 19.72 89.2263 20.8C89.2263 21.6133 89.0196 22.3533 88.6063 23.02C88.1929 23.6867 87.5663 24.22 86.7263 24.62C85.8996 25.0067 84.8863 25.2 83.6862 25.2C82.6863 25.2 81.7196 25.06 80.7863 24.78C79.8663 24.4867 79.0796 24.0867 78.4263 23.58L79.5463 21.56C80.0529 21.9867 80.6663 22.3267 81.3863 22.58C82.1196 22.82 82.8729 22.94 83.6463 22.94C84.5663 22.94 85.2863 22.7533 85.8063 22.38C86.3396 21.9933 86.6063 21.4733 86.6063 20.82C86.6063 20.1667 86.3529 19.66 85.8463 19.3C85.3529 18.9267 84.5929 18.74 83.5663 18.74H82.2863V16.96L85.4663 13.18H79.1063V11H88.6463V12.74L85.2463 16.78ZM100.007 17.64C100.74 17.9733 101.3 18.4267 101.687 19C102.087 19.56 102.287 20.22 102.287 20.98C102.287 21.8333 102.047 22.58 101.567 23.22C101.1 23.86 100.434 24.3533 99.5669 24.7C98.7002 25.0333 97.6935 25.2 96.5469 25.2C95.4002 25.2 94.3935 25.0333 93.5269 24.7C92.6735 24.3533 92.0135 23.86 91.5469 23.22C91.0802 22.58 90.8469 21.8333 90.8469 20.98C90.8469 20.22 91.0402 19.56 91.4269 19C91.8135 18.4267 92.3669 17.9733 93.0869 17.64C92.5269 17.3333 92.0935 16.9333 91.7869 16.44C91.4935 15.9333 91.3469 15.3533 91.3469 14.7C91.3469 13.9133 91.5602 13.2267 91.9869 12.64C92.4269 12.0533 93.0402 11.6 93.8269 11.28C94.6135 10.96 95.5202 10.8 96.5469 10.8C97.5869 10.8 98.5002 10.96 99.2869 11.28C100.074 11.6 100.687 12.0533 101.127 12.64C101.567 13.2267 101.787 13.9133 101.787 14.7C101.787 15.3533 101.634 15.9267 101.327 16.42C101.02 16.9133 100.58 17.32 100.007 17.64ZM96.5469 12.84C95.7335 12.84 95.0869 13.0133 94.6069 13.36C94.1402 13.7067 93.9069 14.1933 93.9069 14.82C93.9069 15.42 94.1402 15.9 94.6069 16.26C95.0869 16.6067 95.7335 16.78 96.5469 16.78C97.3735 16.78 98.0269 16.6067 98.5069 16.26C98.9869 15.9 99.2269 15.42 99.2269 14.82C99.2269 14.1933 98.9802 13.7067 98.4869 13.36C98.0069 13.0133 97.3602 12.84 96.5469 12.84ZM96.5469 23.16C97.5069 23.16 98.2669 22.96 98.8269 22.56C99.3869 22.16 99.6669 21.6067 99.6669 20.9C99.6669 20.2067 99.3869 19.66 98.8269 19.26C98.2669 18.86 97.5069 18.66 96.5469 18.66C95.5869 18.66 94.8335 18.86 94.2869 19.26C93.7402 19.66 93.4669 20.2067 93.4669 20.9C93.4669 21.6067 93.7402 22.16 94.2869 22.56C94.8335 22.96 95.5869 23.16 96.5469 23.16ZM109.814 25.2C108.694 25.2 107.694 24.92 106.814 24.36C105.934 23.7867 105.24 22.96 104.734 21.88C104.227 20.7867 103.974 19.4933 103.974 18C103.974 16.5067 104.227 15.22 104.734 14.14C105.24 13.0467 105.934 12.22 106.814 11.66C107.694 11.0867 108.694 10.8 109.814 10.8C110.934 10.8 111.934 11.0867 112.814 11.66C113.707 12.22 114.407 13.0467 114.914 14.14C115.42 15.22 115.674 16.5067 115.674 18C115.674 19.4933 115.42 20.7867 114.914 21.88C114.407 22.96 113.707 23.7867 112.814 24.36C111.934 24.92 110.934 25.2 109.814 25.2ZM109.814 22.94C110.814 22.94 111.6 22.5267 112.174 21.7C112.76 20.8733 113.054 19.64 113.054 18C113.054 16.36 112.76 15.1267 112.174 14.3C111.6 13.4733 110.814 13.06 109.814 13.06C108.827 13.06 108.04 13.4733 107.454 14.3C106.88 15.1267 106.594 16.36 106.594 18C106.594 19.64 106.88 20.8733 107.454 21.7C108.04 22.5267 108.827 22.94 109.814 22.94ZM124.518 25.14C124.065 25.14 123.678 24.9867 123.358 24.68C123.038 24.36 122.878 23.96 122.878 23.48C122.878 22.9867 123.031 22.5867 123.338 22.28C123.658 21.9733 124.051 21.82 124.518 21.82C124.985 21.82 125.371 21.9733 125.678 22.28C125.998 22.5867 126.158 22.9867 126.158 23.48C126.158 23.96 125.998 24.36 125.678 24.68C125.358 24.9867 124.971 25.14 124.518 25.14ZM129.498 25.14C129.045 25.14 128.658 24.9867 128.338 24.68C128.018 24.36 127.858 23.96 127.858 23.48C127.858 22.9867 128.011 22.5867 128.318 22.28C128.638 21.9733 129.031 21.82 129.498 21.82C129.965 21.82 130.351 21.9733 130.658 22.28C130.978 22.5867 131.138 22.9867 131.138 23.48C131.138 23.96 130.978 24.36 130.658 24.68C130.338 24.9867 129.951 25.14 129.498 25.14ZM134.498 25.14C134.045 25.14 133.658 24.9867 133.338 24.68C133.018 24.36 132.858 23.96 132.858 23.48C132.858 22.9867 133.011 22.5867 133.318 22.28C133.638 21.9733 134.031 21.82 134.498 21.82C134.965 21.82 135.351 21.9733 135.658 22.28C135.978 22.5867 136.138 22.9867 136.138 23.48C136.138 23.96 135.978 24.36 135.658 24.68C135.338 24.9867 134.951 25.14 134.498 25.14ZM144.909 25.14C144.455 25.14 144.069 24.9867 143.749 24.68C143.429 24.36 143.269 23.96 143.269 23.48C143.269 22.9867 143.422 22.5867 143.729 22.28C144.049 21.9733 144.442 21.82 144.909 21.82C145.375 21.82 145.762 21.9733 146.069 22.28C146.389 22.5867 146.549 22.9867 146.549 23.48C146.549 23.96 146.389 24.36 146.069 24.68C145.749 24.9867 145.362 25.14 144.909 25.14ZM149.889 25.14C149.435 25.14 149.049 24.9867 148.729 24.68C148.409 24.36 148.249 23.96 148.249 23.48C148.249 22.9867 148.402 22.5867 148.709 22.28C149.029 21.9733 149.422 21.82 149.889 21.82C150.355 21.82 150.742 21.9733 151.049 22.28C151.369 22.5867 151.529 22.9867 151.529 23.48C151.529 23.96 151.369 24.36 151.049 24.68C150.729 24.9867 150.342 25.14 149.889 25.14ZM154.889 25.14C154.435 25.14 154.049 24.9867 153.729 24.68C153.409 24.36 153.249 23.96 153.249 23.48C153.249 22.9867 153.402 22.5867 153.709 22.28C154.029 21.9733 154.422 21.82 154.889 21.82C155.355 21.82 155.742 21.9733 156.049 22.28C156.369 22.5867 156.529 22.9867 156.529 23.48C156.529 23.96 156.369 24.36 156.049 24.68C155.729 24.9867 155.342 25.14 154.889 25.14ZM165.299 25.14C164.846 25.14 164.459 24.9867 164.139 24.68C163.819 24.36 163.659 23.96 163.659 23.48C163.659 22.9867 163.813 22.5867 164.119 22.28C164.439 21.9733 164.833 21.82 165.299 21.82C165.766 21.82 166.153 21.9733 166.459 22.28C166.779 22.5867 166.939 22.9867 166.939 23.48C166.939 23.96 166.779 24.36 166.459 24.68C166.139 24.9867 165.753 25.14 165.299 25.14ZM170.279 25.14C169.826 25.14 169.439 24.9867 169.119 24.68C168.799 24.36 168.639 23.96 168.639 23.48C168.639 22.9867 168.793 22.5867 169.099 22.28C169.419 21.9733 169.813 21.82 170.279 21.82C170.746 21.82 171.133 21.9733 171.439 22.28C171.759 22.5867 171.919 22.9867 171.919 23.48C171.919 23.96 171.759 24.36 171.439 24.68C171.119 24.9867 170.733 25.14 170.279 25.14ZM175.279 25.14C174.826 25.14 174.439 24.9867 174.119 24.68C173.799 24.36 173.639 23.96 173.639 23.48C173.639 22.9867 173.793 22.5867 174.099 22.28C174.419 21.9733 174.813 21.82 175.279 21.82C175.746 21.82 176.133 21.9733 176.439 22.28C176.759 22.5867 176.919 22.9867 176.919 23.48C176.919 23.96 176.759 24.36 176.439 24.68C176.119 24.9867 175.733 25.14 175.279 25.14Z" fill="white"/>
<g clip-path="url(#clip0)">
<path d="M18.1629 30.4945C17.858 30.7991 17.858 31.2937 18.1629 31.5989C18.4683 31.9038 18.9627 31.9038 19.2673 31.5989C19.5728 31.2937 19.5728 30.7991 19.2673 30.4945C18.9627 30.189 18.4683 30.189 18.1629 30.4945Z" fill="white"/>
<path d="M38.1976 29.1371L32.2662 24.0935C32.2387 24.0703 32.2097 24.049 32.1795 24.0297C30.6234 23.0391 28.6254 23.2586 27.3208 24.5629L24.0868 27.7965C23.8628 28.0208 23.5287 28.087 23.2357 27.9662C19.584 26.4556 16.5841 24.1814 14.3194 21.2075C12.5924 18.9397 11.9698 17.1376 11.8877 16.8837C11.878 16.8294 11.8624 16.7754 11.8404 16.7226C11.7193 16.4296 11.7855 16.0961 12.0101 15.8721L15.2438 12.6375C16.5484 11.3329 16.7675 9.33491 15.7769 7.77882C15.769 7.7663 15.7607 7.7541 15.7522 7.74189L11.4687 1.78944C10.1211 -0.30132 7.18559 -0.617177 5.42381 1.1443L4.77623 1.79188C4.77593 1.79249 4.77532 1.7931 4.77471 1.79341L2.46269 4.10542C-0.294263 6.86268 -0.745313 11.0057 1.15868 16.0875C2.78954 20.4406 6.05431 25.2047 10.3515 29.5018C14.7503 33.9006 19.6432 37.2258 24.1286 38.8649C28.5683 40.4869 33.2909 40.6868 36.6335 37.3439L38.814 35.1638C40.5679 33.4096 40.2618 30.4934 38.1976 29.1371ZM31.2981 25.3209L37.2243 30.3603C37.2515 30.3835 37.2805 30.4049 37.3107 30.4241C38.5766 31.23 38.7682 33.0001 37.709 34.059L37.5472 34.2211L27.4395 26.6533L28.4255 25.6676C29.1961 24.8967 30.3704 24.7573 31.2981 25.3209ZM10.1635 2.6479C10.1714 2.66041 10.1797 2.67292 10.1882 2.68482L14.4698 8.63514C15.0515 9.56623 14.9169 10.7549 14.139 11.5328L13.1835 12.4886L6.34514 2.43244L6.52855 2.24903C7.59209 1.1855 9.36058 1.38661 10.1635 2.6479ZM24.6645 37.3973C20.3884 35.8348 15.6976 32.6384 11.4562 28.3971C7.31316 24.2543 4.17565 19.688 2.62139 15.5394C1.4547 12.4254 0.671923 8.10566 3.56743 5.21046L5.22057 3.55702L12.0589 13.6132L10.9057 14.767C10.2496 15.4219 10.0433 16.3912 10.3707 17.2542C10.6173 18.2662 11.7519 20.3667 12.8967 21.9146C14.5812 24.1924 17.6388 27.3415 22.6385 29.41C23.5171 29.7734 24.519 29.5739 25.1916 28.9016L26.3235 27.7694L36.4312 35.3371L35.5288 36.2392C32.4249 39.3434 27.9076 38.5823 24.6645 37.3973Z" fill="white"/>
<path d="M16.6968 28.6286C15.8716 27.9051 14.4443 26.6606 13.6926 25.8873C11.8493 23.993 9.91544 21.6969 8.76554 20.038C8.51988 19.6833 8.03312 19.5948 7.67851 19.8408C7.32389 20.0865 7.2357 20.5732 7.48136 20.9278C8.93156 23.0201 11.0623 25.4243 12.5726 26.9764C13.3661 27.7931 14.8056 29.0486 15.6665 29.8033C15.9903 30.0871 16.4837 30.056 16.7691 29.7309C17.0535 29.4068 17.0212 28.9131 16.6968 28.6286Z" fill="white"/>
</g>
<defs>
<clipPath id="clip0">
<rect width="40" height="40" fill="white"/>
</clipPath>
</defs>
</svg>
