<svg width="36" height="36" viewBox="0 0 36 36" fill="none" xmlns="http://www.w3.org/2000/svg">
<g clip-path="url(#clip0)">
<path d="M6.86258 0C3.30706 0 0.444153 2.8629 0.444153 6.41843V28.733C0.444153 32.2885 3.30706 35.1514 6.86258 35.1514H18.9569V21.4094H15.3231V16.4618H18.9569V12.2349C18.9569 8.91397 21.1039 5.86479 26.0497 5.86479C28.0522 5.86479 29.533 6.05704 29.533 6.05704L29.4166 10.6773C29.4166 10.6773 27.9064 10.663 26.2584 10.663C24.4749 10.663 24.1889 11.4848 24.1889 12.849V16.4619H29.5583L29.3243 21.4094H24.1889V35.1514H29.1771C32.7326 35.1514 35.5955 32.2885 35.5955 28.733V6.41846C35.5955 2.86294 32.7326 3.51514e-05 29.1771 3.51514e-05H6.86255L6.86258 0Z" fill="white"/>
</g>
<defs>
<clipPath id="clip0">
<rect width="35.1514" height="35.1514" fill="white" transform="translate(0.444153)"/>
</clipPath>
</defs>
</svg>
