<svg width="36" height="36" viewBox="0 0 36 36" fill="none" xmlns="http://www.w3.org/2000/svg">
<g clip-path="url(#clip0)">
<path d="M23.4342 17.5757C23.4342 15.9585 22.8621 14.5777 21.7179 13.4335C20.5736 12.2892 19.1929 11.7171 17.5757 11.7171C15.9585 11.7171 14.5777 12.2892 13.4335 13.4335C12.2892 14.5777 11.7171 15.9585 11.7171 17.5757C11.7171 19.1929 12.2892 20.5736 13.4335 21.7179C14.5777 22.8621 15.9585 23.4342 17.5757 23.4342C19.1929 23.4342 20.5736 22.8621 21.7179 21.7179C22.8621 20.5736 23.4342 19.1929 23.4342 17.5757ZM26.5924 17.5757C26.5924 20.0778 25.7151 22.2061 23.9606 23.9606C22.2061 25.7151 20.0778 26.5924 17.5757 26.5924C15.0736 26.5924 12.9453 25.7151 11.1908 23.9606C9.43625 22.2061 8.55899 20.0778 8.55899 17.5757C8.55899 15.0736 9.43625 12.9453 11.1908 11.1908C12.9453 9.43625 15.0736 8.55899 17.5757 8.55899C20.0778 8.55899 22.2061 9.43625 23.9606 11.1908C25.7151 12.9453 26.5924 15.0736 26.5924 17.5757ZM29.064 8.19283C29.064 8.77258 28.858 9.26843 28.4461 9.68036C28.0341 10.0923 27.5383 10.2983 26.9585 10.2983C26.3788 10.2983 25.8829 10.0923 25.471 9.68036C25.0591 9.26843 24.8531 8.77258 24.8531 8.19283C24.8531 7.61308 25.0591 7.11724 25.471 6.70531C25.8829 6.29338 26.3788 6.08741 26.9585 6.08741C27.5383 6.08741 28.0341 6.29338 28.4461 6.70531C28.858 7.11724 29.064 7.61308 29.064 8.19283ZM17.5757 3.15813C17.4689 3.15813 16.8853 3.15432 15.825 3.14669C14.7646 3.13906 13.9599 3.13906 13.4106 3.14669C12.8614 3.15432 12.1252 3.1772 11.2022 3.21534C10.2792 3.25348 9.49346 3.32977 8.84505 3.44419C8.19665 3.55862 7.65122 3.69974 7.20878 3.86757C6.44594 4.1727 5.77465 4.61514 5.1949 5.1949C4.61514 5.77465 4.1727 6.44594 3.86757 7.20878C3.69974 7.65122 3.55862 8.19665 3.44419 8.84505C3.32977 9.49346 3.25348 10.2792 3.21534 11.2022C3.1772 12.1252 3.15432 12.8614 3.14669 13.4106C3.13906 13.9599 3.13906 14.7646 3.14669 15.825C3.15432 16.8853 3.15813 17.4689 3.15813 17.5757C3.15813 17.6825 3.15432 18.266 3.14669 19.3264C3.13906 20.3867 3.13906 21.1915 3.14669 21.7408C3.15432 22.29 3.1772 23.0261 3.21534 23.9492C3.25348 24.8722 3.32977 25.6579 3.44419 26.3063C3.55862 26.9547 3.69974 27.5001 3.86757 27.9426C4.1727 28.7054 4.61514 29.3767 5.1949 29.9565C5.77465 30.5362 6.44594 30.9787 7.20878 31.2838C7.65122 31.4516 8.19665 31.5927 8.84505 31.7072C9.49346 31.8216 10.2792 31.8979 11.2022 31.936C12.1252 31.9742 12.8614 31.997 13.4106 32.0047C13.9599 32.0123 14.7646 32.0123 15.825 32.0047C16.8853 31.997 17.4689 31.9932 17.5757 31.9932C17.6825 31.9932 18.266 31.997 19.3264 32.0047C20.3867 32.0123 21.1915 32.0123 21.7408 32.0047C22.29 31.997 23.0261 31.9742 23.9492 31.936C24.8722 31.8979 25.6579 31.8216 26.3063 31.7072C26.9547 31.5927 27.5001 31.4516 27.9426 31.2838C28.7054 30.9787 29.3767 30.5362 29.9565 29.9565C30.5362 29.3767 30.9787 28.7054 31.2838 27.9426C31.4516 27.5001 31.5927 26.9547 31.7072 26.3063C31.8216 25.6579 31.8979 24.8722 31.936 23.9492C31.9742 23.0261 31.997 22.29 32.0047 21.7408C32.0123 21.1915 32.0123 20.3867 32.0047 19.3264C31.997 18.266 31.9932 17.6825 31.9932 17.5757C31.9932 17.4689 31.997 16.8853 32.0047 15.825C32.0123 14.7646 32.0123 13.9599 32.0047 13.4106C31.997 12.8614 31.9742 12.1252 31.936 11.2022C31.8979 10.2792 31.8216 9.49346 31.7072 8.84505C31.5927 8.19665 31.4516 7.65122 31.2838 7.20878C30.9787 6.44594 30.5362 5.77465 29.9565 5.1949C29.3767 4.61514 28.7054 4.1727 27.9426 3.86757C27.5001 3.69974 26.9547 3.55862 26.3063 3.44419C25.6579 3.32977 24.8722 3.25348 23.9492 3.21534C23.0261 3.1772 22.29 3.15432 21.7408 3.14669C21.1915 3.13906 20.3867 3.13906 19.3264 3.14669C18.266 3.15432 17.6825 3.15813 17.5757 3.15813ZM35.1514 17.5757C35.1514 21.0695 35.1132 23.4876 35.0369 24.8302C34.8844 28.0036 33.9385 30.4599 32.1992 32.1992C30.4599 33.9385 28.0036 34.8844 24.8302 35.0369C23.4876 35.1132 21.0695 35.1514 17.5757 35.1514C14.0819 35.1514 11.6637 35.1132 10.3211 35.0369C7.14775 34.8844 4.69143 33.9385 2.95217 32.1992C1.21291 30.4599 0.266992 28.0036 0.114425 24.8302C0.0381417 23.4876 0 21.0695 0 17.5757C0 14.0819 0.0381417 11.6637 0.114425 10.3211C0.266992 7.14775 1.21291 4.69143 2.95217 2.95217C4.69143 1.21291 7.14775 0.266992 10.3211 0.114425C11.6637 0.0381417 14.0819 0 17.5757 0C21.0695 0 23.4876 0.0381417 24.8302 0.114425C28.0036 0.266992 30.4599 1.21291 32.1992 2.95217C33.9385 4.69143 34.8844 7.14775 35.0369 10.3211C35.1132 11.6637 35.1514 14.0819 35.1514 17.5757Z" fill="white"/>
</g>
<defs>
<clipPath id="clip0">
<rect width="35.1514" height="35.1514" fill="white"/>
</clipPath>
</defs>
</svg>
