<svg width="37" height="36" viewBox="0 0 37 36" fill="none" xmlns="http://www.w3.org/2000/svg">
<g clip-path="url(#clip0)">
<path d="M8.93861 35.1504V11.4338H1.40352V35.1504H8.93861ZM5.17204 8.19379C7.79965 8.19379 9.43522 6.37264 9.43522 4.09679C9.38626 1.76963 7.79975 -0.000976562 5.2219 -0.000976562C2.64445 -0.000976562 0.958954 1.76967 0.958954 4.09679C0.958954 6.37274 2.59412 8.19379 5.12285 8.19379H5.1718H5.17204ZM13.1093 35.1504H20.6443V21.9059C20.6443 21.1971 20.6933 20.489 20.8923 19.9823C21.437 18.5661 22.6768 17.0993 24.7583 17.0993C27.485 17.0993 28.5758 19.2742 28.5758 22.4624V35.1503H36.1104V21.5514C36.1104 14.2666 32.393 10.877 27.4353 10.877C23.3705 10.877 21.5857 13.254 20.5942 14.873H20.6445V11.4333H13.1094C13.2083 13.6588 13.1094 35.1499 13.1094 35.1499L13.1093 35.1504Z" fill="white"/>
</g>
<defs>
<clipPath id="clip0">
<rect width="35.1514" height="35.1514" fill="white" transform="translate(0.959076)"/>
</clipPath>
</defs>
</svg>
