<svg width="314" height="111" viewBox="0 0 314 111" fill="none" xmlns="http://www.w3.org/2000/svg">
<path d="M92.4486 44.6458L82.3228 64.0358V75.0658H77.3037V64.0358L67.1335 44.6458H72.7249L79.8132 59.5713L86.9016 44.6458H92.4486ZM106.955 75.4597C104.665 75.4597 102.596 74.9491 100.747 73.9278C98.8977 72.8773 97.4448 71.4184 96.3881 69.5508C95.3315 67.6542 94.8032 65.4657 94.8032 62.9854C94.8032 60.5343 95.3465 58.3604 96.4322 56.4637C97.5179 54.567 99.0007 53.108 100.879 52.0867C102.757 51.0655 104.856 50.5548 107.175 50.5548C109.493 50.5548 111.592 51.0655 113.471 52.0867C115.349 53.108 116.832 54.567 117.917 56.4637C119.003 58.3604 119.546 60.5343 119.546 62.9854C119.546 65.4365 118.989 67.6104 117.873 69.507C116.758 71.4038 115.232 72.8773 113.294 73.9278C111.386 74.9491 109.273 75.4597 106.955 75.4597ZM106.955 71.1265C108.246 71.1265 109.449 70.8201 110.565 70.2074C111.709 69.5946 112.634 68.6754 113.338 67.4499C114.043 66.2243 114.395 64.7361 114.395 62.9854C114.395 61.2346 114.058 59.761 113.383 58.5646C112.707 57.3391 111.813 56.4199 110.697 55.8071C109.581 55.1943 108.378 54.888 107.087 54.888C105.795 54.888 104.592 55.1943 103.476 55.8071C102.391 56.4199 101.524 57.3391 100.879 58.5646C100.233 59.761 99.9103 61.2346 99.9103 62.9854C99.9103 65.5824 100.571 67.5958 101.891 69.0256C103.241 70.4262 104.929 71.1265 106.955 71.1265ZM146.478 50.9487V75.0658H141.458V72.2208C140.666 73.2129 139.623 74.0008 138.333 74.5843C137.07 75.1388 135.72 75.416 134.282 75.416C132.374 75.416 130.657 75.022 129.131 74.2342C127.634 73.4463 126.445 72.2792 125.565 70.7326C124.713 69.1861 124.288 67.3186 124.288 65.1301V50.9487H129.263V64.386C129.263 66.5453 129.805 68.2086 130.892 69.3757C131.978 70.5138 133.46 71.0828 135.339 71.0828C137.217 71.0828 138.699 70.5138 139.785 69.3757C140.9 68.2086 141.458 66.5453 141.458 64.386V50.9487H146.478ZM158.118 54.4503C158.853 53.2247 159.821 52.2764 161.024 51.6052C162.257 50.9049 163.71 50.5548 165.383 50.5548V55.7196H164.106C162.14 55.7196 160.643 56.2157 159.615 57.2078C158.618 58.1999 158.118 59.9215 158.118 62.3726V75.0658H153.099V50.9487H158.118V54.4503ZM186.452 44.6458V75.0658H181.433V44.6458H186.452ZM212.81 44.6458V48.7164H204.665V75.0658H199.646V48.7164H191.457V44.6458H212.81ZM239.412 75.3722C237.357 75.3722 235.508 75.022 233.865 74.3217C232.221 73.5923 230.929 72.5709 229.99 71.2578C229.051 69.9447 228.582 68.4128 228.582 66.662H233.953C234.07 67.9751 234.583 69.0548 235.494 69.901C236.432 70.7472 237.739 71.1703 239.412 71.1703C241.143 71.1703 242.494 70.7618 243.463 69.9447C244.431 69.0986 244.916 68.0189 244.916 66.7058C244.916 65.6846 244.607 64.8529 243.991 64.2109C243.404 63.569 242.655 63.0729 241.746 62.7227C240.865 62.3726 239.632 61.9933 238.047 61.5847C236.051 61.0595 234.422 60.5343 233.16 60.009C231.928 59.4546 230.871 58.6084 229.99 57.4704C229.11 56.3324 228.67 54.815 228.67 52.9183C228.67 51.1675 229.11 49.6356 229.99 48.3225C230.871 47.0094 232.104 46.0027 233.689 45.3024C235.274 44.6021 237.108 44.2519 239.192 44.2519C242.156 44.2519 244.577 44.996 246.456 46.4842C248.364 47.9432 249.42 49.9566 249.626 52.5244H244.079C243.991 51.4156 243.463 50.4672 242.494 49.6794C241.525 48.8915 240.249 48.4976 238.664 48.4976C237.225 48.4976 236.051 48.8624 235.142 49.5918C234.231 50.3214 233.777 51.3719 233.777 52.7432C233.777 53.677 234.055 54.4503 234.613 55.063C235.2 55.6467 235.934 56.1135 236.815 56.4637C237.695 56.8138 238.898 57.1932 240.425 57.6017C242.45 58.1562 244.093 58.7105 245.356 59.2649C246.647 59.8194 247.733 60.6802 248.614 61.8473C249.523 62.9854 249.979 64.5173 249.979 66.4432C249.979 67.9897 249.552 69.4487 248.702 70.8201C247.879 72.1916 246.662 73.3005 245.048 74.1466C243.463 74.9637 241.584 75.3722 239.412 75.3722ZM266.423 75.4597C264.133 75.4597 262.064 74.9491 260.215 73.9278C258.366 72.8773 256.913 71.4184 255.856 69.5508C254.8 67.6542 254.271 65.4657 254.271 62.9854C254.271 60.5343 254.815 58.3604 255.9 56.4637C256.987 54.567 258.469 53.108 260.347 52.0867C262.226 51.0655 264.324 50.5548 266.643 50.5548C268.962 50.5548 271.06 51.0655 272.939 52.0867C274.818 53.108 276.3 54.567 277.385 56.4637C278.472 58.3604 279.014 60.5343 279.014 62.9854C279.014 65.4365 278.457 67.6104 277.341 69.507C276.227 71.4038 274.7 72.8773 272.763 73.9278C270.855 74.9491 268.742 75.4597 266.423 75.4597ZM266.423 71.1265C267.714 71.1265 268.918 70.8201 270.033 70.2074C271.178 69.5946 272.102 68.6754 272.807 67.4499C273.511 66.2243 273.863 64.7361 273.863 62.9854C273.863 61.2346 273.526 59.761 272.851 58.5646C272.176 57.3391 271.281 56.4199 270.165 55.8071C269.05 55.1943 267.846 54.888 266.555 54.888C265.264 54.888 264.06 55.1943 262.945 55.8071C261.859 56.4199 260.993 57.3391 260.347 58.5646C259.702 59.761 259.378 61.2346 259.378 62.9854C259.378 65.5824 260.039 67.5958 261.36 69.0256C262.71 70.4262 264.397 71.1265 266.423 71.1265ZM294.146 55.0193H289.656V75.0658H284.593V55.0193H281.731V50.9487H284.593V49.2417C284.593 46.4696 285.326 44.4562 286.794 43.2014C288.291 41.9176 290.624 41.2756 293.794 41.2756V45.4337C292.268 45.4337 291.197 45.7256 290.58 46.3091C289.964 46.8636 289.656 47.841 289.656 49.2417V50.9487H294.146V55.0193ZM304.45 55.0193V68.369C304.45 69.2737 304.656 69.9302 305.067 70.3387C305.507 70.7181 306.241 70.9077 307.268 70.9077H310.35V75.0658H306.388C304.127 75.0658 302.395 74.5406 301.192 73.4901C299.989 72.4396 299.387 70.7326 299.387 68.369V55.0193H296.526V50.9487H299.387V44.9522H304.45V50.9487H310.35V55.0193H304.45Z" fill="white"/>
<path d="M40.7906 64.5659H37.0712V85.5665H40.7906V64.5659Z" fill="white"/>
<path d="M54.0826 61.2884H50.3632V102.888H54.0826V61.2884Z" fill="white"/>
<path d="M8.86027 35.5362L6.35022 38.2648L38.2804 67.2946L40.7905 64.566L8.86027 35.5362Z" fill="white"/>
<path d="M20.9176 29.7308L18.3458 32.402L51.5108 63.9599L54.0826 61.2886L20.9176 29.7308Z" fill="white"/>
<path d="M67.7939 12.57L65.1639 9.95538L32.8286 42.1017L35.4586 44.7163L67.7939 12.57Z" fill="white"/>
<path d="M27.411 12.7361L24.781 15.3508L44.3107 34.7663L46.9407 32.1517L27.411 12.7361Z" fill="white"/>
<path d="M48.6485 9.21226L45.942 6.6759L33.7033 19.5832L36.4097 22.1196L48.6485 9.21226Z" fill="white"/>
<path d="M29.0892 11.6025C29.0892 14.4096 26.8002 16.6853 23.9765 16.6853C21.1528 16.6853 18.8638 14.4096 18.8638 11.6025C18.8638 8.79528 21.1528 6.51965 23.9765 6.51965C26.8002 6.51965 29.0892 8.79528 29.0892 11.6025ZM20.8908 11.6025C20.8908 13.2967 22.2723 14.6701 23.9765 14.6701C25.6806 14.6701 27.0622 13.2967 27.0622 11.6025C27.0622 9.90825 25.6806 8.5348 23.9765 8.5348C22.2723 8.5348 20.8908 9.90825 20.8908 11.6025Z" fill="white"/>
<path d="M10.3033 34.7665C10.3033 37.5736 8.01429 39.8493 5.19063 39.8493C2.36697 39.8493 0.0779419 37.5736 0.0779419 34.7665C0.0779419 31.9593 2.36697 29.6837 5.19063 29.6837C8.01429 29.6837 10.3033 31.9593 10.3033 34.7665ZM2.10494 34.7665C2.10494 36.4608 3.48645 37.8342 5.19063 37.8342C6.89481 37.8342 8.27632 36.4608 8.27632 34.7665C8.27632 33.0723 6.89481 31.6989 5.19063 31.6989C3.48645 31.6989 2.10494 33.0723 2.10494 34.7665Z" fill="white"/>
<path d="M73.3573 8.4848C73.3573 11.292 71.0683 13.5677 68.2446 13.5677C65.421 13.5677 63.132 11.292 63.132 8.4848C63.132 5.67764 65.421 3.40198 68.2446 3.40198C71.0683 3.40198 73.3573 5.67764 73.3573 8.4848ZM65.159 8.4848C65.159 10.179 66.5404 11.5525 68.2446 11.5525C69.9488 11.5525 71.3303 10.179 71.3303 8.4848C71.3303 6.79058 69.9488 5.41713 68.2446 5.41713C66.5404 5.41713 65.159 6.79058 65.159 8.4848Z" fill="white"/>
<path d="M49.3796 10.3825C46.5572 10.4653 44.2016 8.25775 44.1183 5.45181C44.035 2.64587 46.2555 0.304068 49.078 0.22125C51.9003 0.138433 54.2559 2.34596 54.3393 5.1519C54.4226 7.95784 52.202 10.2997 49.3796 10.3825ZM49.1377 2.23552C47.4343 2.2855 46.0942 3.69887 46.1444 5.39236C46.1947 7.08585 47.6164 8.41817 49.3198 8.36819C51.0232 8.3182 52.3634 6.90485 52.3131 5.21135C52.2629 3.51787 50.8411 2.18554 49.1377 2.23552Z" fill="white"/>
<path d="M57.1648 105.872C57.1648 108.679 54.8761 110.954 52.0528 110.954C49.2295 110.954 46.9407 108.679 46.9407 105.872C46.9407 103.065 49.2295 100.789 52.0528 100.789C54.8761 100.789 57.1648 103.065 57.1648 105.872ZM48.9674 105.872C48.9674 107.566 50.3488 108.939 52.0528 108.939C53.7568 108.939 55.1381 107.566 55.1381 105.872C55.1381 104.178 53.7568 102.805 52.0528 102.805C50.3488 102.805 48.9674 104.178 48.9674 105.872Z" fill="white"/>
</svg>
