<svg width="317" height="50" viewBox="0 0 317 50" fill="none" xmlns="http://www.w3.org/2000/svg">
<path d="M73.54 33.14C72.4333 33.14 71.44 32.9067 70.56 32.44C69.68 31.9733 68.9933 31.3267 68.5 30.5C68.0067 29.66 67.76 28.7133 67.76 27.66C67.76 26.6067 68.0067 25.6667 68.5 24.84C68.9933 24.0133 69.6733 23.3667 70.54 22.9C71.42 22.4333 72.42 22.2 73.54 22.2C74.5933 22.2 75.5133 22.4133 76.3 22.84C77.1 23.2667 77.7 23.88 78.1 24.68L76.18 25.8C75.8733 25.3067 75.4867 24.94 75.02 24.7C74.5667 24.4467 74.0667 24.32 73.52 24.32C72.5867 24.32 71.8133 24.6267 71.2 25.24C70.5867 25.84 70.28 26.6467 70.28 27.66C70.28 28.6733 70.58 29.4867 71.18 30.1C71.7933 30.7 72.5733 31 73.52 31C74.0667 31 74.5667 30.88 75.02 30.64C75.4867 30.3867 75.8733 30.0133 76.18 29.52L78.1 30.64C77.6867 31.44 77.08 32.06 76.28 32.5C75.4933 32.9267 74.58 33.14 73.54 33.14ZM84.9048 33.14C83.8248 33.14 82.8515 32.9067 81.9848 32.44C81.1182 31.9733 80.4382 31.3267 79.9448 30.5C79.4648 29.66 79.2248 28.7133 79.2248 27.66C79.2248 26.6067 79.4648 25.6667 79.9448 24.84C80.4382 24.0133 81.1182 23.3667 81.9848 22.9C82.8515 22.4333 83.8248 22.2 84.9048 22.2C85.9982 22.2 86.9782 22.4333 87.8448 22.9C88.7115 23.3667 89.3848 24.0133 89.8648 24.84C90.3582 25.6667 90.6048 26.6067 90.6048 27.66C90.6048 28.7133 90.3582 29.66 89.8648 30.5C89.3848 31.3267 88.7115 31.9733 87.8448 32.44C86.9782 32.9067 85.9982 33.14 84.9048 33.14ZM84.9048 31C85.8248 31 86.5848 30.6933 87.1848 30.08C87.7848 29.4667 88.0848 28.66 88.0848 27.66C88.0848 26.66 87.7848 25.8533 87.1848 25.24C86.5848 24.6267 85.8248 24.32 84.9048 24.32C83.9848 24.32 83.2248 24.6267 82.6248 25.24C82.0382 25.8533 81.7448 26.66 81.7448 27.66C81.7448 28.66 82.0382 29.4667 82.6248 30.08C83.2248 30.6933 83.9848 31 84.9048 31ZM99.0555 22.2C100.402 22.2 101.482 22.5933 102.295 23.38C103.109 24.1667 103.515 25.3333 103.515 26.88V33H101.015V27.2C101.015 26.2667 100.795 25.5667 100.355 25.1C99.9155 24.62 99.2888 24.38 98.4755 24.38C97.5555 24.38 96.8288 24.66 96.2955 25.22C95.7621 25.7667 95.4955 26.56 95.4955 27.6V33H92.9955V22.32H95.3755V23.7C95.7888 23.2067 96.3088 22.8333 96.9355 22.58C97.5621 22.3267 98.2688 22.2 99.0555 22.2ZM113.107 32.42C112.814 32.66 112.454 32.84 112.027 32.96C111.614 33.08 111.174 33.14 110.707 33.14C109.534 33.14 108.627 32.8333 107.987 32.22C107.347 31.6067 107.027 30.7133 107.027 29.54V24.4H105.267V22.4H107.027V19.96H109.527V22.4H112.387V24.4H109.527V29.48C109.527 30 109.654 30.4 109.907 30.68C110.16 30.9467 110.527 31.08 111.007 31.08C111.567 31.08 112.034 30.9333 112.407 30.64L113.107 32.42ZM119.243 22.2C120.817 22.2 122.017 22.58 122.843 23.34C123.683 24.0867 124.103 25.22 124.103 26.74V33H121.743V31.7C121.437 32.1667 120.997 32.5267 120.423 32.78C119.863 33.02 119.183 33.14 118.383 33.14C117.583 33.14 116.883 33.0067 116.283 32.74C115.683 32.46 115.217 32.08 114.883 31.6C114.563 31.1067 114.403 30.5533 114.403 29.94C114.403 28.98 114.757 28.2133 115.463 27.64C116.183 27.0533 117.31 26.76 118.843 26.76H121.603V26.6C121.603 25.8533 121.377 25.28 120.923 24.88C120.483 24.48 119.823 24.28 118.943 24.28C118.343 24.28 117.75 24.3733 117.163 24.56C116.59 24.7467 116.103 25.0067 115.703 25.34L114.723 23.52C115.283 23.0933 115.957 22.7667 116.743 22.54C117.53 22.3133 118.363 22.2 119.243 22.2ZM118.903 31.32C119.53 31.32 120.083 31.18 120.563 30.9C121.057 30.6067 121.403 30.1933 121.603 29.66V28.42H119.023C117.583 28.42 116.863 28.8933 116.863 29.84C116.863 30.2933 117.043 30.6533 117.403 30.92C117.763 31.1867 118.263 31.32 118.903 31.32ZM132.31 33.14C131.203 33.14 130.21 32.9067 129.33 32.44C128.45 31.9733 127.763 31.3267 127.27 30.5C126.776 29.66 126.53 28.7133 126.53 27.66C126.53 26.6067 126.776 25.6667 127.27 24.84C127.763 24.0133 128.443 23.3667 129.31 22.9C130.19 22.4333 131.19 22.2 132.31 22.2C133.363 22.2 134.283 22.4133 135.07 22.84C135.87 23.2667 136.47 23.88 136.87 24.68L134.95 25.8C134.643 25.3067 134.256 24.94 133.79 24.7C133.336 24.4467 132.836 24.32 132.29 24.32C131.356 24.32 130.583 24.6267 129.97 25.24C129.356 25.84 129.05 26.6467 129.05 27.66C129.05 28.6733 129.35 29.4867 129.95 30.1C130.563 30.7 131.343 31 132.29 31C132.836 31 133.336 30.88 133.79 30.64C134.256 30.3867 134.643 30.0133 134.95 29.52L136.87 30.64C136.456 31.44 135.85 32.06 135.05 32.5C134.263 32.9267 133.35 33.14 132.31 33.14ZM145.587 32.42C145.294 32.66 144.934 32.84 144.507 32.96C144.094 33.08 143.654 33.14 143.187 33.14C142.014 33.14 141.107 32.8333 140.467 32.22C139.827 31.6067 139.507 30.7133 139.507 29.54V24.4H137.747V22.4H139.507V19.96H142.007V22.4H144.867V24.4H142.007V29.48C142.007 30 142.134 30.4 142.387 30.68C142.641 30.9467 143.007 31.08 143.487 31.08C144.047 31.08 144.514 30.9333 144.887 30.64L145.587 32.42ZM156.444 18.82C158.257 18.82 159.877 19.1933 161.304 19.94C162.731 20.6867 163.837 21.7267 164.624 23.06C165.424 24.3933 165.824 25.9 165.824 27.58C165.824 29.3133 165.484 30.6733 164.804 31.66C164.124 32.6333 163.184 33.12 161.984 33.12C161.344 33.12 160.804 32.9733 160.364 32.68C159.924 32.3733 159.617 31.94 159.444 31.38C158.644 32.54 157.444 33.12 155.844 33.12C154.937 33.12 154.117 32.9067 153.384 32.48C152.651 32.04 152.077 31.4333 151.664 30.66C151.251 29.8867 151.044 29.0067 151.044 28.02C151.044 27.0467 151.251 26.18 151.664 25.42C152.077 24.6467 152.651 24.0467 153.384 23.62C154.117 23.18 154.937 22.96 155.844 22.96C156.551 22.96 157.184 23.08 157.744 23.32C158.317 23.56 158.797 23.9133 159.184 24.38V23.08H161.404V29.88C161.404 30.36 161.497 30.7067 161.684 30.92C161.884 31.1333 162.137 31.24 162.444 31.24C162.991 31.24 163.404 30.9333 163.684 30.32C163.977 29.6933 164.124 28.7933 164.124 27.62C164.124 26.2067 163.797 24.96 163.144 23.88C162.504 22.8 161.604 21.96 160.444 21.36C159.284 20.76 157.951 20.46 156.444 20.46C154.924 20.46 153.577 20.78 152.404 21.42C151.231 22.0467 150.324 22.9267 149.684 24.06C149.044 25.1933 148.724 26.48 148.724 27.92C148.724 29.3867 149.037 30.6867 149.664 31.82C150.304 32.9533 151.204 33.8333 152.364 34.46C153.524 35.1 154.857 35.42 156.364 35.42C157.017 35.42 157.677 35.3467 158.344 35.2C159.024 35.0533 159.657 34.8333 160.244 34.54L160.784 36.14C160.197 36.4467 159.504 36.68 158.704 36.84C157.917 37 157.137 37.08 156.364 37.08C154.497 37.08 152.844 36.6867 151.404 35.9C149.977 35.1133 148.864 34.0267 148.064 32.64C147.277 31.2533 146.884 29.68 146.884 27.92C146.884 26.1867 147.284 24.6333 148.084 23.26C148.884 21.8733 150.004 20.7867 151.444 20C152.897 19.2133 154.564 18.82 156.444 18.82ZM156.264 31.18C157.131 31.18 157.837 30.9 158.384 30.34C158.944 29.7667 159.224 28.9933 159.224 28.02C159.224 27.06 158.944 26.3 158.384 25.74C157.837 25.18 157.131 24.9 156.264 24.9C155.384 24.9 154.671 25.1867 154.124 25.76C153.577 26.32 153.304 27.0733 153.304 28.02C153.304 28.98 153.577 29.7467 154.124 30.32C154.671 30.8933 155.384 31.18 156.264 31.18ZM178.328 22.32L173.328 33.86C172.861 35.02 172.294 35.8333 171.628 36.3C170.961 36.78 170.154 37.02 169.208 37.02C168.674 37.02 168.148 36.9333 167.628 36.76C167.108 36.5867 166.681 36.3467 166.347 36.04L167.347 34.2C167.588 34.4267 167.868 34.6067 168.188 34.74C168.521 34.8733 168.854 34.94 169.188 34.94C169.628 34.94 169.988 34.8267 170.268 34.6C170.561 34.3733 170.828 33.9933 171.068 33.46L171.248 33.04L166.587 22.32H169.188L172.548 30.22L175.928 22.32H178.328ZM184.397 33.14C183.317 33.14 182.344 32.9067 181.477 32.44C180.61 31.9733 179.93 31.3267 179.437 30.5C178.957 29.66 178.717 28.7133 178.717 27.66C178.717 26.6067 178.957 25.6667 179.437 24.84C179.93 24.0133 180.61 23.3667 181.477 22.9C182.344 22.4333 183.317 22.2 184.397 22.2C185.49 22.2 186.47 22.4333 187.337 22.9C188.204 23.3667 188.877 24.0133 189.357 24.84C189.85 25.6667 190.097 26.6067 190.097 27.66C190.097 28.7133 189.85 29.66 189.357 30.5C188.877 31.3267 188.204 31.9733 187.337 32.44C186.47 32.9067 185.49 33.14 184.397 33.14ZM184.397 31C185.317 31 186.077 30.6933 186.677 30.08C187.277 29.4667 187.577 28.66 187.577 27.66C187.577 26.66 187.277 25.8533 186.677 25.24C186.077 24.6267 185.317 24.32 184.397 24.32C183.477 24.32 182.717 24.6267 182.117 25.24C181.53 25.8533 181.237 26.66 181.237 27.66C181.237 28.66 181.53 29.4667 182.117 30.08C182.717 30.6933 183.477 31 184.397 31ZM202.828 22.32V33H200.448V31.64C200.048 32.12 199.548 32.4933 198.948 32.76C198.348 33.0133 197.701 33.14 197.008 33.14C195.581 33.14 194.454 32.7467 193.628 31.96C192.814 31.16 192.408 29.98 192.408 28.42V22.32H194.908V28.08C194.908 29.04 195.121 29.76 195.548 30.24C195.988 30.7067 196.608 30.94 197.408 30.94C198.301 30.94 199.008 30.6667 199.528 30.12C200.061 29.56 200.328 28.76 200.328 27.72V22.32H202.828ZM208.481 23.88C209.201 22.76 210.468 22.2 212.281 22.2V24.58C212.068 24.54 211.874 24.52 211.701 24.52C210.728 24.52 209.968 24.8067 209.421 25.38C208.874 25.94 208.601 26.7533 208.601 27.82V33H206.101V22.32H208.481V23.88ZM214.402 22.32H216.902V33H214.402V22.32ZM215.662 20.56C215.208 20.56 214.828 20.42 214.522 20.14C214.215 19.8467 214.062 19.4867 214.062 19.06C214.062 18.6333 214.215 18.28 214.522 18C214.828 17.7067 215.208 17.56 215.662 17.56C216.115 17.56 216.495 17.7 216.802 17.98C217.108 18.2467 217.262 18.5867 217.262 19C217.262 19.44 217.108 19.8133 216.802 20.12C216.508 20.4133 216.128 20.56 215.662 20.56ZM226.603 32.42C226.31 32.66 225.95 32.84 225.523 32.96C225.11 33.08 224.67 33.14 224.203 33.14C223.03 33.14 222.123 32.8333 221.483 32.22C220.843 31.6067 220.523 30.7133 220.523 29.54V24.4H218.763V22.4H220.523V19.96H223.023V22.4H225.883V24.4H223.023V29.48C223.023 30 223.15 30.4 223.403 30.68C223.656 30.9467 224.023 31.08 224.503 31.08C225.063 31.08 225.53 30.9333 225.903 30.64L226.603 32.42ZM231.96 33.14C231.093 33.14 230.246 33.0267 229.42 32.8C228.593 32.5733 227.933 32.2867 227.44 31.94L228.4 30.04C228.88 30.36 229.453 30.62 230.12 30.82C230.8 31.0067 231.466 31.1 232.12 31.1C233.613 31.1 234.36 30.7067 234.36 29.92C234.36 29.5467 234.166 29.2867 233.78 29.14C233.406 28.9933 232.8 28.8533 231.96 28.72C231.08 28.5867 230.36 28.4333 229.8 28.26C229.253 28.0867 228.773 27.7867 228.36 27.36C227.96 26.92 227.76 26.3133 227.76 25.54C227.76 24.5267 228.18 23.72 229.02 23.12C229.873 22.5067 231.02 22.2 232.46 22.2C233.193 22.2 233.926 22.2867 234.66 22.46C235.393 22.62 235.993 22.84 236.46 23.12L235.5 25.02C234.593 24.4867 233.573 24.22 232.44 24.22C231.706 24.22 231.146 24.3333 230.76 24.56C230.386 24.7733 230.2 25.06 230.2 25.42C230.2 25.82 230.4 26.1067 230.8 26.28C231.213 26.44 231.846 26.5933 232.7 26.74C233.553 26.8733 234.253 27.0267 234.8 27.2C235.346 27.3733 235.813 27.6667 236.2 28.08C236.6 28.4933 236.8 29.08 236.8 29.84C236.8 30.84 236.366 31.64 235.5 32.24C234.633 32.84 233.453 33.14 231.96 33.14ZM243.753 33.14C242.673 33.14 241.699 32.9067 240.833 32.44C239.966 31.9733 239.286 31.3267 238.793 30.5C238.313 29.66 238.073 28.7133 238.073 27.66C238.073 26.6067 238.313 25.6667 238.793 24.84C239.286 24.0133 239.966 23.3667 240.833 22.9C241.699 22.4333 242.673 22.2 243.753 22.2C244.846 22.2 245.826 22.4333 246.693 22.9C247.559 23.3667 248.233 24.0133 248.713 24.84C249.206 25.6667 249.453 26.6067 249.453 27.66C249.453 28.7133 249.206 29.66 248.713 30.5C248.233 31.3267 247.559 31.9733 246.693 32.44C245.826 32.9067 244.846 33.14 243.753 33.14ZM243.753 31C244.673 31 245.433 30.6933 246.033 30.08C246.633 29.4667 246.933 28.66 246.933 27.66C246.933 26.66 246.633 25.8533 246.033 25.24C245.433 24.6267 244.673 24.32 243.753 24.32C242.833 24.32 242.073 24.6267 241.473 25.24C240.886 25.8533 240.593 26.66 240.593 27.66C240.593 28.66 240.886 29.4667 241.473 30.08C242.073 30.6933 242.833 31 243.753 31ZM256.183 20.04C255.13 20.04 254.603 20.6133 254.603 21.76V22.4H257.543V24.4H254.683V33H252.183V24.4H250.423V22.4H252.183V21.72C252.183 20.5733 252.516 19.6733 253.183 19.02C253.85 18.3533 254.79 18.02 256.003 18.02C256.963 18.02 257.716 18.2133 258.263 18.6L257.563 20.48C257.136 20.1867 256.676 20.04 256.183 20.04ZM265.646 32.42C265.353 32.66 264.993 32.84 264.566 32.96C264.153 33.08 263.713 33.14 263.246 33.14C262.073 33.14 261.166 32.8333 260.526 32.22C259.886 31.6067 259.566 30.7133 259.566 29.54V24.4H257.806V22.4H259.566V19.96H262.066V22.4H264.926V24.4H262.066V29.48C262.066 30 262.193 30.4 262.446 30.68C262.699 30.9467 263.066 31.08 263.546 31.08C264.106 31.08 264.573 30.9333 264.946 30.64L265.646 32.42ZM268.698 33.14C268.244 33.14 267.858 32.9867 267.538 32.68C267.218 32.36 267.058 31.96 267.058 31.48C267.058 30.9867 267.211 30.5867 267.518 30.28C267.838 29.9733 268.231 29.82 268.698 29.82C269.164 29.82 269.551 29.9733 269.858 30.28C270.178 30.5867 270.338 30.9867 270.338 31.48C270.338 31.96 270.178 32.36 269.858 32.68C269.538 32.9867 269.151 33.14 268.698 33.14ZM277.485 33.14C276.379 33.14 275.385 32.9067 274.505 32.44C273.625 31.9733 272.939 31.3267 272.445 30.5C271.952 29.66 271.705 28.7133 271.705 27.66C271.705 26.6067 271.952 25.6667 272.445 24.84C272.939 24.0133 273.619 23.3667 274.485 22.9C275.365 22.4333 276.365 22.2 277.485 22.2C278.539 22.2 279.459 22.4133 280.245 22.84C281.045 23.2667 281.645 23.88 282.045 24.68L280.125 25.8C279.819 25.3067 279.432 24.94 278.965 24.7C278.512 24.4467 278.012 24.32 277.465 24.32C276.532 24.32 275.759 24.6267 275.145 25.24C274.532 25.84 274.225 26.6467 274.225 27.66C274.225 28.6733 274.525 29.4867 275.125 30.1C275.739 30.7 276.519 31 277.465 31C278.012 31 278.512 30.88 278.965 30.64C279.432 30.3867 279.819 30.0133 280.125 29.52L282.045 30.64C281.632 31.44 281.025 32.06 280.225 32.5C279.439 32.9267 278.525 33.14 277.485 33.14ZM288.85 33.14C287.77 33.14 286.797 32.9067 285.93 32.44C285.063 31.9733 284.383 31.3267 283.89 30.5C283.41 29.66 283.17 28.7133 283.17 27.66C283.17 26.6067 283.41 25.6667 283.89 24.84C284.383 24.0133 285.063 23.3667 285.93 22.9C286.797 22.4333 287.77 22.2 288.85 22.2C289.943 22.2 290.923 22.4333 291.79 22.9C292.657 23.3667 293.33 24.0133 293.81 24.84C294.303 25.6667 294.55 26.6067 294.55 27.66C294.55 28.7133 294.303 29.66 293.81 30.5C293.33 31.3267 292.657 31.9733 291.79 32.44C290.923 32.9067 289.943 33.14 288.85 33.14ZM288.85 31C289.77 31 290.53 30.6933 291.13 30.08C291.73 29.4667 292.03 28.66 292.03 27.66C292.03 26.66 291.73 25.8533 291.13 25.24C290.53 24.6267 289.77 24.32 288.85 24.32C287.93 24.32 287.17 24.6267 286.57 25.24C285.983 25.8533 285.69 26.66 285.69 27.66C285.69 28.66 285.983 29.4667 286.57 30.08C287.17 30.6933 287.93 31 288.85 31ZM310.421 22.2C311.767 22.2 312.834 22.5933 313.621 23.38C314.407 24.1533 314.801 25.32 314.801 26.88V33H312.301V27.2C312.301 26.2667 312.094 25.5667 311.681 25.1C311.267 24.62 310.674 24.38 309.901 24.38C309.061 24.38 308.387 24.66 307.881 25.22C307.374 25.7667 307.121 26.5533 307.121 27.58V33H304.621V27.2C304.621 26.2667 304.414 25.5667 304.001 25.1C303.587 24.62 302.994 24.38 302.221 24.38C301.367 24.38 300.687 24.6533 300.181 25.2C299.687 25.7467 299.441 26.54 299.441 27.58V33H296.941V22.32H299.321V23.68C299.721 23.2 300.221 22.8333 300.821 22.58C301.421 22.3267 302.087 22.2 302.821 22.2C303.621 22.2 304.327 22.3533 304.941 22.66C305.567 22.9533 306.061 23.3933 306.421 23.98C306.861 23.42 307.427 22.9867 308.121 22.68C308.814 22.36 309.581 22.2 310.421 22.2Z" fill="white"/>
<path d="M13.4266 8.10303H13.4144C12.8751 8.10303 12.4379 8.54023 12.4379 9.07959C12.4379 9.61895 12.8751 10.0562 13.4144 10.0562H13.4266C13.966 10.0562 14.4032 9.61895 14.4032 9.07959C14.4032 8.54023 13.966 8.10303 13.4266 8.10303Z" fill="white"/>
<path d="M46.0938 8.10303H17.7801C17.2407 8.10303 16.8035 8.54023 16.8035 9.07959C16.8035 9.61895 17.2407 10.0562 17.7801 10.0562H46.0938C46.1443 10.0562 46.194 10.06 46.2437 10.0638L43.5148 12.7926H30.7764C30.237 12.7926 29.7998 13.2298 29.7998 13.7691C29.7998 14.3085 30.237 14.7457 30.7764 14.7457H41.5617L27.9495 28.3579C26.3231 29.9843 23.6769 29.9844 22.0505 28.3579L3.75635 10.0638C3.80596 10.06 3.85566 10.0562 3.90625 10.0562H9.08203C9.62139 10.0562 10.0586 9.61895 10.0586 9.07959C10.0586 8.54023 9.62139 8.10303 9.08203 8.10303H3.90625C1.75234 8.10303 0 9.85537 0 12.0093V37.9899C0 40.1438 1.75234 41.8962 3.90625 41.8962H46.0938C48.2477 41.8962 50 40.1438 50 37.9899V12.0093C50 9.85537 48.2477 8.10303 46.0938 8.10303ZM1.95312 37.9899V12.0093C1.95312 11.7205 2.01777 11.4472 2.13076 11.2003L15.7228 24.7923L2.02139 38.4937C1.97832 38.3326 1.95312 38.1644 1.95312 37.9899ZM46.0938 39.9431H3.90625C3.73184 39.9431 3.56357 39.9179 3.40254 39.8748L17.1039 26.1734L20.6695 29.7391C21.8634 30.9329 23.4316 31.5299 25 31.5299C26.5684 31.5299 28.1366 30.9329 29.3306 29.7391L32.8961 26.1734L46.5975 39.8748C46.4364 39.9179 46.2682 39.9431 46.0938 39.9431ZM48.0469 37.9899C48.0469 38.1644 48.0217 38.3326 47.9786 38.4937L34.2772 24.7924L47.8692 11.2003C47.9822 11.4472 48.0469 11.7205 48.0469 12.0093V37.9899Z" fill="white"/>
<path d="M26.6895 12.793H26.6748C26.1354 12.793 25.6982 13.2302 25.6982 13.7695C25.6982 14.3089 26.1354 14.7461 26.6748 14.7461H26.6895C27.2288 14.7461 27.666 14.3089 27.666 13.7695C27.666 13.2302 27.2288 12.793 26.6895 12.793Z" fill="white"/>
</svg>
