<svg width="362" height="50" viewBox="0 0 362 50" fill="none" xmlns="http://www.w3.org/2000/svg">
<path d="M73.54 32.1396C72.4333 32.1396 71.44 31.9062 70.56 31.4396C69.68 30.9729 68.9933 30.3262 68.5 29.4996C68.0067 28.6596 67.76 27.7129 67.76 26.6596C67.76 25.6062 68.0067 24.6662 68.5 23.8396C68.9933 23.0129 69.6733 22.3662 70.54 21.8996C71.42 21.4329 72.42 21.1996 73.54 21.1996C74.5933 21.1996 75.5133 21.4129 76.3 21.8396C77.1 22.2662 77.7 22.8796 78.1 23.6796L76.18 24.7996C75.8733 24.3062 75.4867 23.9396 75.02 23.6996C74.5667 23.4462 74.0667 23.3196 73.52 23.3196C72.5867 23.3196 71.8133 23.6262 71.2 24.2396C70.5867 24.8396 70.28 25.6462 70.28 26.6596C70.28 27.6729 70.58 28.4862 71.18 29.0996C71.7933 29.6996 72.5733 29.9996 73.52 29.9996C74.0667 29.9996 74.5667 29.8796 75.02 29.6396C75.4867 29.3862 75.8733 29.0129 76.18 28.5196L78.1 29.6396C77.6867 30.4396 77.08 31.0596 76.28 31.4996C75.4933 31.9262 74.58 32.1396 73.54 32.1396ZM81.4517 32.1396C80.9984 32.1396 80.6117 31.9862 80.2917 31.6796C79.9717 31.3596 79.8117 30.9596 79.8117 30.4796C79.8117 29.9862 79.9651 29.5862 80.2717 29.2796C80.5917 28.9729 80.9851 28.8196 81.4517 28.8196C81.9184 28.8196 82.3051 28.9729 82.6117 29.2796C82.9317 29.5862 83.0917 29.9862 83.0917 30.4796C83.0917 30.9596 82.9317 31.3596 82.6117 31.6796C82.2917 31.9862 81.9051 32.1396 81.4517 32.1396ZM100.602 24.7196C101.495 24.9596 102.175 25.3729 102.642 25.9596C103.109 26.5329 103.342 27.2529 103.342 28.1196C103.342 29.3462 102.889 30.2996 101.982 30.9796C101.075 31.6596 99.7619 31.9996 98.0419 31.9996H91.4019V17.9996H97.6619C99.2352 17.9996 100.462 18.3129 101.342 18.9396C102.222 19.5662 102.662 20.4529 102.662 21.5996C102.662 22.3329 102.482 22.9662 102.122 23.4996C101.775 24.0329 101.269 24.4396 100.602 24.7196ZM93.9619 23.9796H97.4419C98.2819 23.9796 98.9219 23.8129 99.3619 23.4796C99.8019 23.1462 100.022 22.6529 100.022 21.9996C100.022 21.3462 99.8019 20.8529 99.3619 20.5196C98.9219 20.1729 98.2819 19.9996 97.4419 19.9996H93.9619V23.9796ZM97.9619 29.9996C99.8019 29.9996 100.722 29.3062 100.722 27.9196C100.722 26.5596 99.8019 25.8796 97.9619 25.8796H93.9619V29.9996H97.9619ZM116.024 26.7196C116.024 26.8929 116.01 27.1396 115.984 27.4596H107.604C107.75 28.2462 108.13 28.8729 108.744 29.3396C109.37 29.7929 110.144 30.0196 111.064 30.0196C112.237 30.0196 113.204 29.6329 113.964 28.8596L115.304 30.3996C114.824 30.9729 114.217 31.4062 113.484 31.6996C112.75 31.9929 111.924 32.1396 111.004 32.1396C109.83 32.1396 108.797 31.9062 107.904 31.4396C107.01 30.9729 106.317 30.3262 105.824 29.4996C105.344 28.6596 105.104 27.7129 105.104 26.6596C105.104 25.6196 105.337 24.6862 105.804 23.8596C106.284 23.0196 106.944 22.3662 107.784 21.8996C108.624 21.4329 109.57 21.1996 110.624 21.1996C111.664 21.1996 112.59 21.4329 113.404 21.8996C114.23 22.3529 114.87 22.9996 115.324 23.8396C115.79 24.6662 116.024 25.6262 116.024 26.7196ZM110.624 23.1996C109.824 23.1996 109.144 23.4396 108.584 23.9196C108.037 24.3862 107.704 25.0129 107.584 25.7996H113.644C113.537 25.0262 113.21 24.3996 112.664 23.9196C112.117 23.4396 111.437 23.1996 110.624 23.1996ZM128.301 21.3196V31.9996H125.801V23.4396H121.801L121.701 25.5596C121.635 26.9729 121.501 28.1596 121.301 29.1196C121.115 30.0662 120.788 30.8196 120.321 31.3796C119.868 31.9262 119.241 32.1996 118.441 32.1996C118.068 32.1996 117.608 32.1262 117.061 31.9796L117.181 29.8796C117.368 29.9196 117.528 29.9396 117.661 29.9396C118.168 29.9396 118.548 29.7396 118.801 29.3396C119.055 28.9262 119.215 28.4396 119.281 27.8796C119.361 27.3062 119.428 26.4929 119.481 25.4396L119.661 21.3196H128.301ZM131.668 21.3196H134.168V28.3596L140.068 21.3196H142.348V31.9996H139.848V24.9596L133.968 31.9996H131.668V21.3196ZM150.151 27.7196H148.211V31.9996H145.711V21.3196H148.211V25.6396H150.211L153.371 21.3196H156.051L152.171 26.4596L156.311 31.9996H153.371L150.151 27.7196ZM158.075 21.3196H160.575V31.9996H158.075V21.3196ZM159.335 19.5596C158.881 19.5596 158.501 19.4196 158.195 19.1396C157.888 18.8462 157.735 18.4862 157.735 18.0596C157.735 17.6329 157.888 17.2796 158.195 16.9996C158.501 16.7062 158.881 16.5596 159.335 16.5596C159.788 16.5596 160.168 16.6996 160.475 16.9796C160.781 17.2462 160.935 17.5862 160.935 17.9996C160.935 18.4396 160.781 18.8129 160.475 19.1196C160.181 19.4129 159.801 19.5596 159.335 19.5596ZM179.261 20.1996H172.321L172.341 31.9996H169.781V17.9996H179.281L179.261 20.1996ZM185.16 21.1996C186.733 21.1996 187.933 21.5796 188.76 22.3396C189.6 23.0862 190.02 24.2196 190.02 25.7396V31.9996H187.66V30.6996C187.353 31.1662 186.913 31.5262 186.34 31.7796C185.78 32.0196 185.1 32.1396 184.3 32.1396C183.5 32.1396 182.8 32.0062 182.2 31.7396C181.6 31.4596 181.133 31.0796 180.8 30.5996C180.48 30.1062 180.32 29.5529 180.32 28.9396C180.32 27.9796 180.673 27.2129 181.38 26.6396C182.1 26.0529 183.227 25.7596 184.76 25.7596H187.52V25.5996C187.52 24.8529 187.293 24.2796 186.84 23.8796C186.4 23.4796 185.74 23.2796 184.86 23.2796C184.26 23.2796 183.667 23.3729 183.08 23.5596C182.507 23.7462 182.02 24.0062 181.62 24.3396L180.64 22.5196C181.2 22.0929 181.873 21.7662 182.66 21.5396C183.447 21.3129 184.28 21.1996 185.16 21.1996ZM184.82 30.3196C185.447 30.3196 186 30.1796 186.48 29.8996C186.973 29.6062 187.32 29.1929 187.52 28.6596V27.4196H184.94C183.5 27.4196 182.78 27.8929 182.78 28.8396C182.78 29.2929 182.96 29.6529 183.32 29.9196C183.68 30.1862 184.18 30.3196 184.82 30.3196ZM193.074 21.3196H195.574V31.9996H193.074V21.3196ZM192.814 19.6196C192.48 19.6196 192.2 19.5129 191.974 19.2996C191.76 19.0729 191.654 18.7862 191.654 18.4396C191.654 18.0929 191.76 17.8062 191.974 17.5796C192.2 17.3529 192.48 17.2396 192.814 17.2396C193.134 17.2396 193.4 17.3529 193.614 17.5796C193.84 17.8062 193.954 18.0929 193.954 18.4396C193.954 18.7729 193.84 19.0529 193.614 19.2796C193.4 19.5062 193.134 19.6196 192.814 19.6196ZM195.874 19.6196C195.54 19.6196 195.26 19.5062 195.034 19.2796C194.82 19.0529 194.714 18.7729 194.714 18.4396C194.714 18.0929 194.82 17.8062 195.034 17.5796C195.26 17.3529 195.54 17.2396 195.874 17.2396C196.207 17.2396 196.48 17.3529 196.694 17.5796C196.907 17.8062 197.014 18.0929 197.014 18.4396C197.014 18.7862 196.907 19.0729 196.694 19.2996C196.48 19.5129 196.207 19.6196 195.874 19.6196ZM199.675 28.8196C200.142 28.8196 200.528 28.9729 200.835 29.2796C201.142 29.5862 201.295 29.9862 201.295 30.4796C201.295 30.6929 201.262 30.9196 201.195 31.1596C201.142 31.3862 201.022 31.7329 200.835 32.1996L199.815 35.0196H198.195L198.995 31.9596C198.702 31.8396 198.468 31.6529 198.295 31.3996C198.135 31.1329 198.055 30.8262 198.055 30.4796C198.055 29.9862 198.208 29.5862 198.515 29.2796C198.822 28.9729 199.208 28.8196 199.675 28.8196ZM217.045 26.4396C218.365 26.8396 219.025 27.6929 219.025 28.9996C219.025 29.9596 218.665 30.6996 217.945 31.2196C217.225 31.7396 216.158 31.9996 214.745 31.9996H209.305V21.3196H214.525C215.832 21.3196 216.852 21.5596 217.585 22.0396C218.318 22.5196 218.685 23.1996 218.685 24.0796C218.685 24.6262 218.538 25.0996 218.245 25.4996C217.965 25.8996 217.565 26.2129 217.045 26.4396ZM211.685 25.7796H214.305C215.598 25.7796 216.245 25.3329 216.245 24.4396C216.245 23.5729 215.598 23.1396 214.305 23.1396H211.685V25.7796ZM214.545 30.1796C215.918 30.1796 216.605 29.7329 216.605 28.8396C216.605 28.3729 216.445 28.0262 216.125 27.7996C215.805 27.5596 215.305 27.4396 214.625 27.4396H211.685V30.1796H214.545ZM231.768 21.3196L226.768 32.8596C226.301 34.0196 225.734 34.8329 225.068 35.2996C224.401 35.7796 223.594 36.0196 222.648 36.0196C222.114 36.0196 221.588 35.9329 221.068 35.7596C220.548 35.5862 220.121 35.3462 219.788 35.0396L220.788 33.1996C221.028 33.4262 221.308 33.6062 221.628 33.7396C221.961 33.8729 222.294 33.9396 222.628 33.9396C223.068 33.9396 223.428 33.8262 223.708 33.5996C224.001 33.3729 224.268 32.9929 224.508 32.4596L224.688 32.0396L220.028 21.3196H222.628L225.988 29.2196L229.368 21.3196H231.768ZM242.52 21.3196V31.9996H240.02V23.4396H236.02L235.92 25.5596C235.853 26.9729 235.72 28.1596 235.52 29.1196C235.333 30.0662 235.007 30.8196 234.54 31.3796C234.087 31.9262 233.46 32.1996 232.66 32.1996C232.287 32.1996 231.827 32.1262 231.28 31.9796L231.4 29.8796C231.587 29.9196 231.747 29.9396 231.88 29.9396C232.387 29.9396 232.767 29.7396 233.02 29.3396C233.273 28.9262 233.433 28.4396 233.5 27.8796C233.58 27.3062 233.647 26.4929 233.7 25.4396L233.88 21.3196H242.52ZM246.647 32.1396C246.194 32.1396 245.807 31.9862 245.487 31.6796C245.167 31.3596 245.007 30.9596 245.007 30.4796C245.007 29.9862 245.16 29.5862 245.467 29.2796C245.787 28.9729 246.18 28.8196 246.647 28.8196C247.114 28.8196 247.5 28.9729 247.807 29.2796C248.127 29.5862 248.287 29.9862 248.287 30.4796C248.287 30.9596 248.127 31.3596 247.807 31.6796C247.487 31.9862 247.1 32.1396 246.647 32.1396ZM263.057 32.1996C261.631 32.1996 260.344 31.8929 259.197 31.2796C258.051 30.6529 257.151 29.7929 256.497 28.6996C255.844 27.5929 255.517 26.3596 255.517 24.9996C255.517 23.6396 255.844 22.4129 256.497 21.3196C257.151 20.2129 258.051 19.3529 259.197 18.7396C260.344 18.1129 261.631 17.7996 263.057 17.7996C264.484 17.7996 265.771 18.1129 266.917 18.7396C268.064 19.3529 268.964 20.2062 269.617 21.2996C270.271 22.3929 270.597 23.6262 270.597 24.9996C270.597 26.3729 270.271 27.6062 269.617 28.6996C268.964 29.7929 268.064 30.6529 266.917 31.2796C265.771 31.8929 264.484 32.1996 263.057 32.1996ZM263.057 29.9196C263.991 29.9196 264.831 29.7129 265.577 29.2996C266.324 28.8729 266.911 28.2862 267.337 27.5396C267.764 26.7796 267.977 25.9329 267.977 24.9996C267.977 24.0662 267.764 23.2262 267.337 22.4796C266.911 21.7196 266.324 21.1329 265.577 20.7196C264.831 20.2929 263.991 20.0796 263.057 20.0796C262.124 20.0796 261.284 20.2929 260.537 20.7196C259.791 21.1329 259.204 21.7196 258.777 22.4796C258.351 23.2262 258.137 24.0662 258.137 24.9996C258.137 25.9329 258.351 26.7796 258.777 27.5396C259.204 28.2862 259.791 28.8729 260.537 29.2996C261.284 29.7129 262.124 29.9196 263.057 29.9196ZM278.972 21.8396C279.985 21.8396 280.878 22.0596 281.652 22.4996C282.425 22.9262 283.025 23.5262 283.452 24.2996C283.892 25.0729 284.112 25.9596 284.112 26.9596C284.112 27.9862 283.872 28.8996 283.392 29.6996C282.912 30.4862 282.238 31.0996 281.372 31.5396C280.505 31.9796 279.518 32.1996 278.412 32.1996C276.558 32.1996 275.125 31.5862 274.112 30.3596C273.098 29.1329 272.592 27.3662 272.592 25.0596C272.592 22.9129 273.052 21.2129 273.972 19.9596C274.892 18.7062 276.298 17.8796 278.192 17.4796L283.152 16.4196L283.512 18.6596L279.012 19.5796C277.718 19.8462 276.752 20.2996 276.112 20.9396C275.472 21.5796 275.098 22.4796 274.992 23.6396C275.472 23.0662 276.052 22.6262 276.732 22.3196C277.412 21.9996 278.158 21.8396 278.972 21.8396ZM278.472 30.1796C279.392 30.1796 280.132 29.8862 280.692 29.2996C281.265 28.6996 281.552 27.9396 281.552 27.0196C281.552 26.0996 281.265 25.3596 280.692 24.7996C280.132 24.2396 279.392 23.9596 278.472 23.9596C277.538 23.9596 276.785 24.2396 276.212 24.7996C275.638 25.3596 275.352 26.0996 275.352 27.0196C275.352 27.9529 275.638 28.7129 276.212 29.2996C276.798 29.8862 277.552 30.1796 278.472 30.1796ZM287.756 20.2196C288.05 20.3396 288.276 20.5329 288.436 20.7996C288.61 21.0529 288.696 21.3596 288.696 21.7196C288.696 22.1996 288.543 22.5929 288.236 22.8996C287.93 23.2062 287.55 23.3596 287.096 23.3596C286.616 23.3596 286.223 23.2062 285.916 22.8996C285.61 22.5929 285.456 22.1996 285.456 21.7196C285.456 21.4796 285.483 21.2462 285.536 21.0196C285.603 20.7929 285.723 20.4529 285.896 19.9996L286.956 17.1596H288.556L287.756 20.2196ZM291.785 21.3196H294.285V31.9996H291.785V21.3196ZM291.525 19.6196C291.191 19.6196 290.911 19.5129 290.685 19.2996C290.471 19.0729 290.365 18.7862 290.365 18.4396C290.365 18.0929 290.471 17.8062 290.685 17.5796C290.911 17.3529 291.191 17.2396 291.525 17.2396C291.845 17.2396 292.111 17.3529 292.325 17.5796C292.551 17.8062 292.665 18.0929 292.665 18.4396C292.665 18.7729 292.551 19.0529 292.325 19.2796C292.111 19.5062 291.845 19.6196 291.525 19.6196ZM294.585 19.6196C294.251 19.6196 293.971 19.5062 293.745 19.2796C293.531 19.0529 293.425 18.7729 293.425 18.4396C293.425 18.0929 293.531 17.8062 293.745 17.5796C293.971 17.3529 294.251 17.2396 294.585 17.2396C294.918 17.2396 295.191 17.3529 295.405 17.5796C295.618 17.8062 295.725 18.0929 295.725 18.4396C295.725 18.7862 295.618 19.0729 295.405 19.2996C295.191 19.5129 294.918 19.6196 294.585 19.6196ZM303.849 26.4396C304.516 26.6262 305.029 26.9329 305.389 27.3596C305.762 27.7729 305.949 28.2729 305.949 28.8596C305.949 29.5129 305.729 30.0929 305.289 30.5996C304.849 31.0929 304.242 31.4796 303.469 31.7596C302.696 32.0396 301.816 32.1796 300.829 32.1796C300.002 32.1796 299.196 32.0862 298.409 31.8996C297.622 31.6996 296.909 31.4196 296.269 31.0596L296.989 29.1996C297.509 29.4929 298.096 29.7196 298.749 29.8796C299.402 30.0396 300.056 30.1196 300.709 30.1196C301.549 30.1196 302.202 29.9929 302.669 29.7396C303.149 29.4729 303.389 29.1129 303.389 28.6596C303.389 28.2462 303.202 27.9262 302.829 27.6996C302.469 27.4729 301.956 27.3596 301.289 27.3596H299.209V25.6796H301.089C301.716 25.6796 302.202 25.5729 302.549 25.3596C302.909 25.1462 303.089 24.8462 303.089 24.4596C303.089 24.0729 302.876 23.7662 302.449 23.5396C302.022 23.3129 301.436 23.1996 300.689 23.1996C299.622 23.1996 298.496 23.4596 297.309 23.9796L296.669 22.1396C298.069 21.4862 299.482 21.1596 300.909 21.1596C301.816 21.1596 302.629 21.2862 303.349 21.5396C304.069 21.7796 304.629 22.1262 305.029 22.5796C305.442 23.0196 305.649 23.5262 305.649 24.0996C305.649 24.6196 305.489 25.0862 305.169 25.4996C304.849 25.8996 304.409 26.2129 303.849 26.4396ZM308.543 21.3196H311.043V25.6596H316.423V21.3196H318.923V31.9996H316.423V27.7796H311.043V31.9996H308.543V21.3196ZM326.254 21.1996C327.827 21.1996 329.027 21.5796 329.854 22.3396C330.694 23.0862 331.114 24.2196 331.114 25.7396V31.9996H328.754V30.6996C328.447 31.1662 328.007 31.5262 327.434 31.7796C326.874 32.0196 326.194 32.1396 325.394 32.1396C324.594 32.1396 323.894 32.0062 323.294 31.7396C322.694 31.4596 322.227 31.0796 321.894 30.5996C321.574 30.1062 321.414 29.5529 321.414 28.9396C321.414 27.9796 321.767 27.2129 322.474 26.6396C323.194 26.0529 324.32 25.7596 325.854 25.7596H328.614V25.5996C328.614 24.8529 328.387 24.2796 327.934 23.8796C327.494 23.4796 326.834 23.2796 325.954 23.2796C325.354 23.2796 324.76 23.3729 324.174 23.5596C323.6 23.7462 323.114 24.0062 322.714 24.3396L321.734 22.5196C322.294 22.0929 322.967 21.7662 323.754 21.5396C324.54 21.3129 325.374 21.1996 326.254 21.1996ZM325.914 30.3196C326.54 30.3196 327.094 30.1796 327.574 29.8996C328.067 29.6062 328.414 29.1929 328.614 28.6596V27.4196H326.034C324.594 27.4196 323.874 27.8929 323.874 28.8396C323.874 29.2929 324.054 29.6529 324.414 29.9196C324.774 30.1862 325.274 30.3196 325.914 30.3196ZM344.895 23.7796C346.188 23.9396 347.175 24.3796 347.855 25.0996C348.535 25.8196 348.875 26.7196 348.875 27.7996C348.875 28.6129 348.668 29.3529 348.255 30.0196C347.841 30.6862 347.215 31.2196 346.375 31.6196C345.548 32.0062 344.535 32.1996 343.335 32.1996C342.335 32.1996 341.368 32.0596 340.435 31.7796C339.515 31.4862 338.728 31.0862 338.075 30.5796L339.195 28.5596C339.701 28.9862 340.315 29.3262 341.035 29.5796C341.768 29.8196 342.521 29.9396 343.295 29.9396C344.215 29.9396 344.935 29.7529 345.455 29.3796C345.988 28.9929 346.255 28.4729 346.255 27.8196C346.255 27.1662 346.001 26.6596 345.495 26.2996C345.001 25.9262 344.241 25.7396 343.215 25.7396H341.935V23.9596L345.115 20.1796H338.755V17.9996H348.295V19.7396L344.895 23.7796ZM355.355 21.1996C356.929 21.1996 358.129 21.5796 358.955 22.3396C359.795 23.0862 360.215 24.2196 360.215 25.7396V31.9996H357.855V30.6996C357.549 31.1662 357.109 31.5262 356.535 31.7796C355.975 32.0196 355.295 32.1396 354.495 32.1396C353.695 32.1396 352.995 32.0062 352.395 31.7396C351.795 31.4596 351.329 31.0796 350.995 30.5996C350.675 30.1062 350.515 29.5529 350.515 28.9396C350.515 27.9796 350.869 27.2129 351.575 26.6396C352.295 26.0529 353.422 25.7596 354.955 25.7596H357.715V25.5996C357.715 24.8529 357.489 24.2796 357.035 23.8796C356.595 23.4796 355.935 23.2796 355.055 23.2796C354.455 23.2796 353.862 23.3729 353.275 23.5596C352.702 23.7462 352.215 24.0062 351.815 24.3396L350.835 22.5196C351.395 22.0929 352.069 21.7662 352.855 21.5396C353.642 21.3129 354.475 21.1996 355.355 21.1996ZM355.015 30.3196C355.642 30.3196 356.195 30.1796 356.675 29.8996C357.169 29.6062 357.515 29.1929 357.715 28.6596V27.4196H355.135C353.695 27.4196 352.975 27.8929 352.975 28.8396C352.975 29.2929 353.155 29.6529 353.515 29.9196C353.875 30.1862 354.375 30.3196 355.015 30.3196Z" fill="white"/>
<g clip-path="url(#clip0)">
<path d="M24.9876 0C17.0662 0 10.6218 6.44453 10.6218 14.3658C10.6218 17.6586 11.7613 20.8688 13.833 23.4191C13.8484 23.4431 13.865 23.4664 13.8828 23.4891L24.2178 36.7297C24.4028 36.9668 24.6868 37.1054 24.9876 37.1054C25.2884 37.1054 25.5723 36.9667 25.7573 36.7295L36.1419 23.4192C36.1455 23.4145 36.149 23.41 36.1525 23.4053C38.2167 20.8582 39.3532 17.6495 39.3532 14.3658C39.3534 6.44453 32.909 0 24.9876 0ZM34.6143 22.2016C34.6019 22.2168 34.5902 22.2321 34.5789 22.2478L24.9874 34.5417L15.4927 22.3776C15.469 22.3391 15.4425 22.3019 15.4132 22.2663C13.5827 20.0508 12.5747 17.245 12.5747 14.3658C12.5747 7.52139 18.1432 1.95293 24.9876 1.95293C31.832 1.95293 37.4005 7.52139 37.4006 14.3658C37.4006 17.2143 36.411 19.9971 34.6143 22.2016Z" fill="white"/>
<path d="M33.4159 12.0859C33.2633 11.5687 32.7202 11.2731 32.203 11.4257C31.6857 11.5783 31.3901 12.1213 31.5427 12.6386C32.2526 15.0449 31.5928 17.6407 29.8206 19.4129C28.5297 20.7039 26.8132 21.4149 24.9875 21.4149C23.1618 21.4149 21.4453 20.7039 20.1543 19.4128C18.8633 18.1218 18.1523 16.4054 18.1523 14.5796C18.1523 12.7538 18.8633 11.0373 20.1544 9.74639C21.9283 7.97237 24.5262 7.31309 26.9344 8.02598C27.4517 8.1792 27.9949 7.88399 28.1479 7.3669C28.301 6.84981 28.0058 6.30645 27.4888 6.15342C24.3935 5.23721 21.0541 6.08487 18.7735 8.36543C17.1137 10.0253 16.1996 12.2322 16.1996 14.5796C16.1996 16.927 17.1136 19.1338 18.7735 20.7937C20.4334 22.4535 22.6403 23.3677 24.9877 23.3677C27.335 23.3677 29.5419 22.4535 31.2017 20.7939C33.48 18.5156 34.3284 15.1789 33.4159 12.0859Z" fill="white"/>
<path d="M31.219 8.38268L31.2018 8.3653C30.8203 7.98395 30.2021 7.98395 29.8208 8.3653C29.4395 8.74674 29.4395 9.365 29.8208 9.74625L29.8381 9.76364C30.0287 9.95436 30.2786 10.0497 30.5285 10.0497C30.7784 10.0497 31.0283 9.95436 31.219 9.76364C31.6003 9.38229 31.6003 8.76403 31.219 8.38268Z" fill="white"/>
<path d="M40.001 29.8153C39.4888 29.6471 38.9368 29.9253 38.7682 30.4376C38.5996 30.9498 38.8783 31.5018 39.3905 31.6704C44.8094 33.4536 48.0445 36.1254 48.0445 38.8173C48.0445 41.0935 45.6969 43.3966 41.6035 45.1359C37.1846 47.0135 31.2881 48.0476 25.0001 48.0476C18.7121 48.0476 12.8157 47.0135 8.39672 45.1359C4.30345 43.3966 1.9558 41.0936 1.9558 38.8173C1.9558 36.911 3.59994 34.9747 6.58548 33.3648C9.73988 31.6637 14.2072 30.4317 19.1643 29.8959C19.7004 29.8379 20.0881 29.3564 20.0301 28.8201C19.9721 28.284 19.4904 27.8959 18.9543 27.9543C13.7519 28.5167 9.03002 29.8277 5.65843 31.6459C1.95853 33.6411 0.00286865 36.1209 0.00286865 38.8173C0.00286865 41.9602 2.71263 44.8425 7.63295 46.9332C12.2881 48.911 18.4558 50.0004 25.0002 50.0004C31.5447 50.0004 37.7123 48.911 42.3673 46.9332C47.2876 44.8425 49.9974 41.9603 49.9974 38.8173C49.9974 35.187 46.3539 31.906 40.001 29.8153Z" fill="white"/>
<path d="M35.5329 28.6439L35.4989 28.6371C34.9703 28.5305 34.4553 28.8726 34.3486 29.4012C34.2421 29.9298 34.5842 30.4449 35.1128 30.5515L35.1468 30.5583C35.212 30.5714 35.2769 30.5778 35.3409 30.5778C35.7961 30.5778 36.2035 30.2576 36.2971 29.7942C36.4036 29.2656 36.0615 28.7505 35.5329 28.6439Z" fill="white"/>
<path d="M17.6171 32.9123C17.5113 32.3836 16.9969 32.0407 16.468 32.1463C16.4461 32.1507 16.4227 32.1561 16.401 32.1621C15.8808 32.304 15.5741 32.8407 15.716 33.361C15.8344 33.7954 16.228 34.0809 16.6575 34.0809C16.7343 34.0809 16.8122 34.0718 16.8899 34.0527C17.3967 33.9302 17.7203 33.4281 17.6171 32.9123Z" fill="white"/>
<path d="M28.2581 31.3224C27.7199 31.2809 27.2505 31.6821 27.2084 32.2197C27.1663 32.7573 27.5681 33.2273 28.1057 33.2694C34.4812 33.7684 37.8768 35.6332 37.8768 36.7874C37.8768 37.3442 36.9891 38.2901 34.4872 39.1233C31.9675 39.9625 28.5983 40.4247 25 40.4247C21.4018 40.4247 18.0324 39.9625 15.5128 39.1233C13.0109 38.2901 12.1233 37.3442 12.1233 36.7874C12.1233 36.2785 12.8134 35.6369 13.9693 35.0713C14.4537 34.8343 14.6542 34.2496 14.4172 33.7652C14.1802 33.2808 13.5954 33.0802 13.1109 33.3173C10.6805 34.5066 10.1702 35.8608 10.1702 36.7875C10.1702 40.4576 17.6305 42.3778 24.9999 42.3778C32.3693 42.3778 39.8296 40.4576 39.8297 36.7874C39.8298 33.4222 33.5962 31.7403 28.2581 31.3224Z" fill="white"/>
</g>
<defs>
<clipPath id="clip0">
<rect width="50" height="50" fill="white"/>
</clipPath>
</defs>
</svg>
