<svg width="36" height="36" viewBox="0 0 36 36" fill="none" xmlns="http://www.w3.org/2000/svg">
<path d="M31.936 8.72905C30.8856 9.18217 29.7425 9.50828 28.565 9.63529C29.7875 8.90905 30.7029 7.7617 31.1396 6.40851C29.9925 7.0909 28.7358 7.56941 27.4254 7.8228C26.8776 7.23726 26.2152 6.7708 25.4793 6.45247C24.7435 6.13415 23.9499 5.97078 23.1481 5.97255C19.9042 5.97255 17.2953 8.60204 17.2953 11.8288C17.2953 12.2819 17.3502 12.7351 17.4395 13.171C12.5821 12.917 8.25001 10.5965 5.36993 7.04357C4.84515 7.93991 4.57015 8.9605 4.57353 9.99917C4.57353 12.0314 5.60679 13.8233 7.18242 14.8771C6.25388 14.8405 5.34708 14.5853 4.53577 14.1322V14.2043C4.53577 17.05 6.54736 19.4083 9.22834 19.9507C8.72496 20.0815 8.20712 20.1484 7.68704 20.1498C7.306 20.1498 6.94556 20.1121 6.58169 20.0606C7.32317 22.3811 9.48237 24.0666 12.0535 24.1215C10.0419 25.6971 7.52227 26.624 4.78636 26.624C4.29548 26.624 3.84236 26.6068 3.37207 26.5519C5.96723 28.2168 9.04641 29.1779 12.3624 29.1779C23.1276 29.1779 29.0182 20.2597 29.0182 12.5188C29.0182 12.2648 29.0182 12.0108 29.001 11.7567C30.1407 10.9226 31.1396 9.88932 31.936 8.72905Z" fill="white"/>
</svg>
