<svg width="192" height="64" viewBox="0 0 192 64" fill="none" xmlns="http://www.w3.org/2000/svg">
<path d="M23.5323 37.222H21.3843V49.3422H23.5323V37.222Z" fill="#FFD41C"/>
<path d="M31.2086 35.3304H29.0607V59.3389H31.2086V35.3304Z" fill="#FFD41C"/>
<path d="M5.09233 20.468L3.64276 22.0428L22.0827 38.797L23.5323 37.2221L5.09233 20.468Z" fill="#FFD41C"/>
<path d="M12.0555 17.1174L10.5703 18.6591L29.7234 36.8722L31.2086 35.3305L12.0555 17.1174Z" fill="#FFD41C"/>
<path d="M39.127 7.21346L37.6082 5.70447L18.9343 24.2572L20.4532 25.7662L39.127 7.21346Z" fill="#FFD41C"/>
<path d="M15.8055 7.30949L14.2866 8.81848L25.5652 20.0239L27.084 18.5149L15.8055 7.30949Z" fill="#FFD41C"/>
<path d="M28.0703 5.27559L26.5073 3.81177L19.4393 11.261L21.0023 12.7248L28.0703 5.27559Z" fill="#FFD41C"/>
<path d="M16.7746 6.65515C16.7746 8.27527 15.4527 9.58861 13.822 9.58861C12.1913 9.58861 10.8694 8.27527 10.8694 6.65515C10.8694 5.03505 12.1913 3.72168 13.822 3.72168C15.4527 3.72168 16.7746 5.03505 16.7746 6.65515ZM12.04 6.65515C12.04 7.63295 12.8378 8.42561 13.822 8.42561C14.8062 8.42561 15.604 7.63295 15.604 6.65515C15.604 5.67737 14.8062 4.88469 13.822 4.88469C12.8378 4.88469 12.04 5.67737 12.04 6.65515Z" fill="#9A9C9E"/>
<path d="M5.92575 20.0238C5.92575 21.6439 4.60381 22.9573 2.97314 22.9573C1.34244 22.9573 0.0205078 21.6439 0.0205078 20.0238C0.0205078 18.4037 1.34244 17.0903 2.97314 17.0903C4.60381 17.0903 5.92575 18.4037 5.92575 20.0238ZM1.19111 20.0238C1.19111 21.0016 1.98895 21.7943 2.97314 21.7943C3.9573 21.7943 4.75515 21.0016 4.75515 20.0238C4.75515 19.046 3.9573 18.2533 2.97314 18.2533C1.98895 18.2533 1.19111 19.046 1.19111 20.0238Z" fill="#9A9C9E"/>
<path d="M42.3398 4.85571C42.3398 6.47583 41.0178 7.78918 39.3873 7.78918C37.7566 7.78918 36.4346 6.47583 36.4346 4.85571C36.4346 3.23559 37.7566 1.92224 39.3873 1.92224C41.0178 1.92224 42.3398 3.23559 42.3398 4.85571ZM37.6052 4.85571C37.6052 5.83352 38.403 6.62617 39.3873 6.62617C40.3714 6.62617 41.1692 5.83352 41.1692 4.85571C41.1692 3.87791 40.3714 3.08525 39.3873 3.08525C38.403 3.08525 37.6052 3.87791 37.6052 4.85571Z" fill="#9A9C9E"/>
<path d="M28.4927 5.95089C26.8627 5.9987 25.5021 4.72465 25.454 3.10525C25.4059 1.48584 26.6885 0.134304 28.3182 0.0865071C29.9482 0.0387103 31.3088 1.31275 31.3569 2.93216C31.405 4.55156 30.1224 5.9031 28.4927 5.95089ZM28.3528 1.24901C27.369 1.27786 26.5952 2.09356 26.6243 3.07094C26.6531 4.0483 27.4743 4.81724 28.4581 4.78838C29.4416 4.75954 30.2157 3.94383 30.1866 2.96647C30.1578 1.9891 29.3366 1.22017 28.3528 1.24901Z" fill="#9A9C9E"/>
<path d="M32.9887 61.0612C32.9887 62.6811 31.6667 63.9942 30.0362 63.9942C28.4057 63.9942 27.084 62.6811 27.084 61.0612C27.084 59.4413 28.4057 58.1282 30.0362 58.1282C31.6667 58.1282 32.9887 59.4413 32.9887 61.0612ZM28.2546 61.0612C28.2546 62.0389 29.0522 62.8315 30.0362 62.8315C31.0203 62.8315 31.8181 62.0389 31.8181 61.0612C31.8181 60.0835 31.0203 59.2909 30.0362 59.2909C29.0522 59.2909 28.2546 60.0835 28.2546 61.0612Z" fill="#9A9C9E"/>
<path d="M54.5967 22.5465L48.2552 34.6817V41.5848H45.112V34.6817L38.7429 22.5465H42.2445L46.6836 31.8876L51.1227 22.5465H54.5967ZM63.6809 41.8313C62.2471 41.8313 60.9513 41.5115 59.7932 40.8725C58.6352 40.2151 57.7254 39.3019 57.0636 38.1332C56.4019 36.9461 56.071 35.5765 56.071 34.0243C56.071 32.4903 56.4112 31.1296 57.0912 29.9427C57.7712 28.7556 58.6996 27.8424 59.876 27.2034C61.0523 26.5642 62.3667 26.2447 63.8187 26.2447C65.2708 26.2447 66.5852 26.5642 67.7615 27.2034C68.9378 27.8424 69.8662 28.7556 70.5462 29.9427C71.2263 31.1296 71.5664 32.4903 71.5664 34.0243C71.5664 35.5583 71.2172 36.9187 70.5187 38.1058C69.8201 39.2927 68.8644 40.2151 67.6512 40.8725C66.4563 41.5115 65.1329 41.8313 63.6809 41.8313ZM63.6809 39.1194C64.4897 39.1194 65.2432 38.9276 65.9417 38.5441C66.6586 38.1606 67.2376 37.5854 67.6788 36.8184C68.1199 36.0514 68.3405 35.12 68.3405 34.0243C68.3405 32.9286 68.1292 32.0062 67.7063 31.2576C67.2835 30.4906 66.723 29.9153 66.0245 29.5318C65.3259 29.1483 64.5724 28.9566 63.7636 28.9566C62.9547 28.9566 62.2013 29.1483 61.5027 29.5318C60.8227 29.9153 60.2803 30.4906 59.876 31.2576C59.4717 32.0062 59.2694 32.9286 59.2694 34.0243C59.2694 35.6494 59.683 36.9095 60.5101 37.8045C61.3556 38.6811 62.4126 39.1194 63.6809 39.1194ZM88.4321 26.4912V41.5848H85.2889V39.8042C84.7926 40.425 84.1399 40.9181 83.3313 41.2834C82.5407 41.6303 81.6953 41.8039 80.7947 41.8039C79.5998 41.8039 78.5245 41.5574 77.5688 41.0643C76.6313 40.5712 75.8869 39.8406 75.3355 38.8728C74.8023 37.9049 74.5359 36.7362 74.5359 35.3665V26.4912H77.6515V34.9009C77.6515 36.2521 77.9914 37.293 78.6717 38.0237C79.3517 38.7359 80.2798 39.092 81.4564 39.092C82.6327 39.092 83.5609 38.7359 84.2412 38.0237C84.9395 37.293 85.2889 36.2521 85.2889 34.9009V26.4912H88.4321ZM95.7223 28.6826C96.1817 27.9156 96.7883 27.322 97.542 26.9021C98.3141 26.4638 99.2239 26.2447 100.272 26.2447V29.477H99.4721C98.2406 29.477 97.3032 29.7873 96.6597 30.4084C96.0349 31.0292 95.7223 32.1068 95.7223 33.6408V41.5848H92.5791V26.4912H95.7223V28.6826ZM113.466 22.5465V41.5848H110.323V22.5465H113.466ZM129.973 22.5465V25.0942H124.872V41.5848H121.729V25.0942H116.6V22.5465H129.973ZM146.632 41.7765C145.346 41.7765 144.188 41.5574 143.158 41.1191C142.129 40.6624 141.32 40.0234 140.732 39.2016C140.143 38.3798 139.849 37.421 139.849 36.3253H143.213C143.287 37.1471 143.609 37.8227 144.178 38.3524C144.767 38.8818 145.584 39.1468 146.632 39.1468C147.717 39.1468 148.562 38.891 149.169 38.3798C149.775 37.8501 150.079 37.1745 150.079 36.3527C150.079 35.7134 149.886 35.193 149.5 34.7913C149.132 34.3894 148.663 34.0791 148.093 33.8599C147.542 33.6408 146.77 33.4032 145.777 33.1477C144.527 32.819 143.507 32.4903 142.717 32.1616C141.945 31.8144 141.283 31.285 140.732 30.5728C140.18 29.8605 139.905 28.9108 139.905 27.7239C139.905 26.6282 140.18 25.6694 140.732 24.8475C141.283 24.0257 142.055 23.3957 143.048 22.9574C144.04 22.5191 145.189 22.3 146.494 22.3C148.351 22.3 149.867 22.7657 151.044 23.697C152.238 24.6101 152.9 25.8701 153.029 27.4774H149.555C149.5 26.7833 149.169 26.1899 148.562 25.6968C147.956 25.2037 147.156 24.9572 146.163 24.9572C145.263 24.9572 144.527 25.1853 143.958 25.642C143.388 26.0985 143.103 26.7559 143.103 27.6143C143.103 28.1985 143.278 28.6826 143.627 29.0662C143.995 29.4312 144.454 29.7236 145.005 29.9427C145.557 30.1619 146.311 30.3992 147.266 30.6549C148.535 31.0018 149.564 31.3487 150.354 31.6959C151.163 32.0428 151.843 32.5814 152.395 33.3121C152.964 34.0243 153.249 34.983 153.249 36.1883C153.249 37.156 152.983 38.0692 152.45 38.9276C151.935 39.7858 151.172 40.4798 150.161 41.0095C149.169 41.5208 147.992 41.7765 146.632 41.7765ZM163.548 41.8313C162.114 41.8313 160.818 41.5115 159.66 40.8725C158.502 40.2151 157.592 39.3019 156.931 38.1332C156.269 36.9461 155.938 35.5765 155.938 34.0243C155.938 32.4903 156.278 31.1296 156.958 29.9427C157.638 28.7556 158.566 27.8424 159.743 27.2034C160.919 26.5642 162.234 26.2447 163.686 26.2447C165.138 26.2447 166.452 26.5642 167.629 27.2034C168.805 27.8424 169.733 28.7556 170.413 29.9427C171.093 31.1296 171.433 32.4903 171.433 34.0243C171.433 35.5583 171.084 36.9187 170.386 38.1058C169.687 39.2927 168.731 40.2151 167.518 40.8725C166.323 41.5115 165 41.8313 163.548 41.8313ZM163.548 39.1194C164.357 39.1194 165.11 38.9276 165.809 38.5441C166.526 38.1606 167.105 37.5854 167.546 36.8184C167.987 36.0514 168.208 35.12 168.208 34.0243C168.208 32.9286 167.996 32.0062 167.573 31.2576C167.151 30.4906 166.59 29.9153 165.892 29.5318C165.193 29.1483 164.439 28.9566 163.631 28.9566C162.822 28.9566 162.068 29.1483 161.37 29.5318C160.689 29.9153 160.147 30.4906 159.743 31.2576C159.338 32.0062 159.136 32.9286 159.136 34.0243C159.136 35.6494 159.55 36.9095 160.377 37.8045C161.223 38.6811 162.28 39.1194 163.548 39.1194ZM180.91 29.0388H178.097V41.5848H174.927V29.0388H173.134V26.4912H174.927V25.4229C174.927 23.6879 175.386 22.4278 176.305 21.6425C177.243 20.839 178.704 20.4373 180.689 20.4373V23.0396C179.733 23.0396 179.062 23.2222 178.676 23.5874C178.29 23.9344 178.097 24.5462 178.097 25.4229V26.4912H180.91V29.0388ZM187.362 29.0388V37.3936C187.362 37.9597 187.491 38.3706 187.748 38.6263C188.024 38.8636 188.484 38.9824 189.127 38.9824H191.057V41.5848H188.576C187.16 41.5848 186.076 41.256 185.322 40.5986C184.568 39.9412 184.192 38.8728 184.192 37.3936V29.0388H182.4V26.4912H184.192V22.7383H187.362V26.4912H191.057V29.0388H187.362Z" fill="#9A9C9E"/>
</svg>
